<?xml version="1.0" encoding="UTF-8" standalone="no"?>
<!DOCTYPE svg PUBLIC "-//W3C//DTD SVG 1.1//EN"
 "http://www.w3.org/Graphics/SVG/1.1/DTD/svg11.dtd">
<!-- Generated by graphviz version 2.22.2 (20090313.1817)
 -->
<!-- Title: PROV Pages: 1 -->
<svg width="243pt" height="332pt"
 viewBox="0.00 0.00 243.00 332.00" xmlns="http://www.w3.org/2000/svg" xmlns:xlink="http://www.w3.org/1999/xlink">
<g id="graph1" class="graph" transform="scale(1 1) rotate(0) translate(4 328)">
<title>PROV</title>
<polygon fill="white" stroke="white" points="-4,5 -4,-328 240,-328 240,5 -4,5"/>
<!-- nabs -->
<g id="node1" class="node"><title>nabs</title>
<polygon fill="#9fb1fc" stroke="#0000ff" points="196,-108 142,-108 142,-72 196,-72 196,-108"/>
<text text-anchor="middle" x="169" y="-85.8" font-family="Times Roman,serif" font-size="14.00">abs</text>
</g>
<!-- nreport_1 -->
<g id="node4" class="node"><title>nreport_1</title>
<ellipse fill="#fffc87" stroke="#808080" cx="67" cy="-162" rx="42.1367" ry="18"/>
<text text-anchor="middle" x="67" y="-157.8" font-family="Times Roman,serif" font-size="14.00">report&#45;1</text>
</g>
<!-- nabs&#45;&gt;nreport_1 -->
<g id="edge8" class="edge"><title>nabs&#45;&gt;nreport_1</title>
<path fill="none" stroke="black" d="M143.261,-108.169C129.25,-118.059 111.836,-130.351 97.1873,-140.691"/>
<polygon fill="black" stroke="black" points="95.0798,-137.895 88.9285,-146.521 99.1166,-143.614 95.0798,-137.895"/>
<text text-anchor="middle" x="144.625" y="-120.706" font-family="Times Roman,serif" font-size="8.00">use</text>
</g>
<!-- nreport_3 -->
<g id="node5" class="node"><title>nreport_3</title>
<ellipse fill="#fffc87" stroke="#808080" cx="169" cy="-162" rx="42.1367" ry="18"/>
<text text-anchor="middle" x="169" y="-157.8" font-family="Times Roman,serif" font-size="14.00">report&#45;3</text>
</g>
<!-- nabs&#45;&gt;nreport_3 -->
<g id="edge10" class="edge"><title>nabs&#45;&gt;nreport_3</title>
<path fill="none" stroke="black" d="M163.048,-108.169C162.286,-115.988 162.07,-125.308 162.4,-133.978"/>
<polygon fill="black" stroke="black" points="158.916,-134.341 163.073,-144.087 165.9,-133.876 158.916,-134.341"/>
<text text-anchor="middle" x="175.323" y="-114.389" font-family="Times Roman,serif" font-size="8.00">use</text>
</g>
<!-- nanalytics1 -->
<g id="node2" class="node"><title>nanalytics1</title>
<polygon fill="#9fb1fc" stroke="#0000ff" points="102.882,-252 31.1183,-252 31.1183,-216 102.882,-216 102.882,-252"/>
<text text-anchor="middle" x="67" y="-229.8" font-family="Times Roman,serif" font-size="14.00">analytics1</text>
</g>
<!-- nAJC_summary -->
<g id="node3" class="node"><title>nAJC_summary</title>
<ellipse fill="#fffc87" stroke="#808080" cx="67" cy="-306" rx="66.8578" ry="18"/>
<text text-anchor="middle" x="67" y="-301.8" font-family="Times Roman,serif" font-size="14.00">AJC&#45;summary</text>
</g>
<!-- nanalytics1&#45;&gt;nAJC_summary -->
<g id="edge2" class="edge"><title>nanalytics1&#45;&gt;nAJC_summary</title>
<path fill="none" stroke="black" d="M67,-252.169C67,-259.869 67,-269.026 67,-277.583"/>
<polygon fill="black" stroke="black" points="63.5001,-277.587 67,-287.587 70.5001,-277.587 63.5001,-277.587"/>
<text text-anchor="middle" x="79.9904" y="-257.269" font-family="Times Roman,serif" font-size="8.00">use</text>
</g>
<!-- nreport_1&#45;&gt;nanalytics1 -->
<g id="edge6" class="edge"><title>nreport_1&#45;&gt;nanalytics1</title>
<path fill="none" stroke="black" d="M67,-180.169C67,-187.869 67,-197.026 67,-205.583"/>
<polygon fill="black" stroke="black" points="63.5001,-205.587 67,-215.587 70.5001,-205.587 63.5001,-205.587"/>
<text text-anchor="middle" x="79.9904" y="-185.269" font-family="Times Roman,serif" font-size="8.00">gen</text>
</g>
<!-- nreport_3&#45;&gt;nabs -->
<g id="edge4" class="edge"><title>nreport_3&#45;&gt;nabs</title>
<path fill="none" stroke="black" d="M174.927,-144.087C175.701,-136.301 175.929,-126.99 175.611,-118.306"/>
<polygon fill="black" stroke="black" points="179.094,-117.921 174.952,-108.169 172.108,-118.375 179.094,-117.921"/>
<text text-anchor="middle" x="162.667" y="-133.044" font-family="Times Roman,serif" font-size="8.00">use</text>
</g>
<!-- nadvice_reports -->
<g id="node6" class="node"><title>nadvice_reports</title>
<ellipse fill="#fffc87" stroke="#808080" cx="169" cy="-18" rx="65.7663" ry="18"/>
<text text-anchor="middle" x="169" y="-13.8" font-family="Times Roman,serif" font-size="14.00">advice&#45;reports</text>
</g>
<!-- nadvice_reports&#45;&gt;nabs -->
<g id="edge12" class="edge"><title>nadvice_reports&#45;&gt;nabs</title>
<path fill="none" stroke="black" d="M169,-36.1686C169,-43.869 169,-53.0257 169,-61.5834"/>
<polygon fill="black" stroke="black" points="165.5,-61.5867 169,-71.5867 172.5,-61.5868 165.5,-61.5867"/>
<text text-anchor="middle" x="181.99" y="-41.2686" font-family="Times Roman,serif" font-size="8.00">gen</text>
</g>
</g>
</svg>
