<?xml version="1.0" encoding="UTF-8" standalone="no"?>
<!DOCTYPE svg PUBLIC "-//W3C//DTD SVG 1.1//EN"
 "http://www.w3.org/Graphics/SVG/1.1/DTD/svg11.dtd">
<!-- Generated by graphviz version 2.22.2 (20090313.1817)
 -->
<!-- Title: PROV Pages: 1 -->
<svg width="218pt" height="332pt"
 viewBox="0.00 0.00 218.00 332.00" xmlns="http://www.w3.org/2000/svg" xmlns:xlink="http://www.w3.org/1999/xlink">
<g id="graph1" class="graph" transform="scale(1 1) rotate(0) translate(4 328)">
<title>PROV</title>
<polygon fill="white" stroke="white" points="-4,5 -4,-328 215,-328 215,5 -4,5"/>
<!-- nabs -->
<g id="node1" class="node"><title>nabs</title>
<polygon fill="#9fb1fc" stroke="#0000ff" points="171,-108 117,-108 117,-72 171,-72 171,-108"/>
<text text-anchor="middle" x="144" y="-85.8" font-family="Times Roman,serif" font-size="14.00">abs</text>
</g>
<!-- nreport_1 -->
<g id="node5" class="node"><title>nreport_1</title>
<ellipse fill="#fffc87" stroke="#808080" cx="42" cy="-162" rx="42.1367" ry="18"/>
<text text-anchor="middle" x="42" y="-157.8" font-family="Times Roman,serif" font-size="14.00">report&#45;1</text>
</g>
<!-- nabs&#45;&gt;nreport_1 -->
<g id="edge12" class="edge"><title>nabs&#45;&gt;nreport_1</title>
<path fill="none" stroke="black" d="M118.261,-108.169C104.25,-118.059 86.8361,-130.351 72.1873,-140.691"/>
<polygon fill="black" stroke="black" points="70.0798,-137.895 63.9285,-146.521 74.1166,-143.614 70.0798,-137.895"/>
<text text-anchor="middle" x="119.625" y="-120.706" font-family="Times Roman,serif" font-size="8.00">use</text>
</g>
<!-- nreport_3 -->
<g id="node6" class="node"><title>nreport_3</title>
<ellipse fill="#fffc87" stroke="#808080" cx="144" cy="-162" rx="42.1367" ry="18"/>
<text text-anchor="middle" x="144" y="-157.8" font-family="Times Roman,serif" font-size="14.00">report&#45;3</text>
</g>
<!-- nabs&#45;&gt;nreport_3 -->
<g id="edge14" class="edge"><title>nabs&#45;&gt;nreport_3</title>
<path fill="none" stroke="black" d="M144,-108.169C144,-115.869 144,-125.026 144,-133.583"/>
<polygon fill="black" stroke="black" points="140.5,-133.587 144,-143.587 147.5,-133.587 140.5,-133.587"/>
<text text-anchor="middle" x="156.99" y="-113.269" font-family="Times Roman,serif" font-size="8.00">use</text>
</g>
<!-- nanalytics1 -->
<g id="node2" class="node"><title>nanalytics1</title>
<polygon fill="#9fb1fc" stroke="#0000ff" points="83.8817,-252 12.1183,-252 12.1183,-216 83.8817,-216 83.8817,-252"/>
<text text-anchor="middle" x="48" y="-229.8" font-family="Times Roman,serif" font-size="14.00">analytics1</text>
</g>
<!-- nAJC_summary -->
<g id="node4" class="node"><title>nAJC_summary</title>
<ellipse fill="#fffc87" stroke="#808080" cx="96" cy="-306" rx="66.8578" ry="18"/>
<text text-anchor="middle" x="96" y="-301.8" font-family="Times Roman,serif" font-size="14.00">AJC&#45;summary</text>
</g>
<!-- nanalytics1&#45;&gt;nAJC_summary -->
<g id="edge2" class="edge"><title>nanalytics1&#45;&gt;nAJC_summary</title>
<path fill="none" stroke="black" d="M60.1124,-252.169C65.6687,-260.503 72.3622,-270.543 78.4559,-279.684"/>
<polygon fill="black" stroke="black" points="75.5985,-281.708 84.0577,-288.087 81.4229,-277.825 75.5985,-281.708"/>
<text text-anchor="middle" x="75.0813" y="-248.803" font-family="Times Roman,serif" font-size="8.00">use</text>
</g>
<!-- nanalytics3 -->
<g id="node3" class="node"><title>nanalytics3</title>
<polygon fill="#9fb1fc" stroke="#0000ff" points="179.882,-252 108.118,-252 108.118,-216 179.882,-216 179.882,-252"/>
<text text-anchor="middle" x="144" y="-229.8" font-family="Times Roman,serif" font-size="14.00">analytics3</text>
</g>
<!-- nanalytics3&#45;&gt;nabs -->
<g id="edge6" class="edge"><title>nanalytics3&#45;&gt;nabs</title>
<path fill="none" stroke="black" d="M167.849,-215.928C178.294,-206.504 189.426,-194.02 195,-180 200.911,-165.132 200.911,-158.868 195,-144 190.732,-133.266 183.207,-123.432 175.226,-115.183"/>
<polygon fill="black" stroke="black" points="177.478,-112.492 167.849,-108.072 172.62,-117.532 177.478,-112.492"/>
<text text-anchor="middle" x="164.52" y="-198.902" font-family="Times Roman,serif" font-size="8.00">use</text>
</g>
<!-- nanalytics3&#45;&gt;nAJC_summary -->
<g id="edge4" class="edge"><title>nanalytics3&#45;&gt;nAJC_summary</title>
<path fill="none" stroke="black" d="M131.888,-252.169C126.331,-260.503 119.638,-270.543 113.544,-279.684"/>
<polygon fill="black" stroke="black" points="110.577,-277.825 107.942,-288.087 116.402,-281.708 110.577,-277.825"/>
<text text-anchor="middle" x="138.536" y="-263.215" font-family="Times Roman,serif" font-size="8.00">use</text>
</g>
<!-- nreport_1&#45;&gt;nanalytics1 -->
<g id="edge8" class="edge"><title>nreport_1&#45;&gt;nanalytics1</title>
<path fill="none" stroke="black" d="M43.5141,-180.169C44.1558,-187.869 44.9188,-197.026 45.6319,-205.583"/>
<polygon fill="black" stroke="black" points="42.1471,-205.912 46.4656,-215.587 49.1229,-205.331 42.1471,-205.912"/>
<text text-anchor="middle" x="57.0824" y="-184.164" font-family="Times Roman,serif" font-size="8.00">gen</text>
</g>
<!-- nreport_3&#45;&gt;nanalytics3 -->
<g id="edge10" class="edge"><title>nreport_3&#45;&gt;nanalytics3</title>
<path fill="none" stroke="black" d="M144,-180.169C144,-187.869 144,-197.026 144,-205.583"/>
<polygon fill="black" stroke="black" points="140.5,-205.587 144,-215.587 147.5,-205.587 140.5,-205.587"/>
<text text-anchor="middle" x="156.99" y="-185.269" font-family="Times Roman,serif" font-size="8.00">gen</text>
</g>
<!-- nadvice_reports -->
<g id="node7" class="node"><title>nadvice_reports</title>
<ellipse fill="#fffc87" stroke="#808080" cx="144" cy="-18" rx="65.7663" ry="18"/>
<text text-anchor="middle" x="144" y="-13.8" font-family="Times Roman,serif" font-size="14.00">advice&#45;reports</text>
</g>
<!-- nadvice_reports&#45;&gt;nabs -->
<g id="edge16" class="edge"><title>nadvice_reports&#45;&gt;nabs</title>
<path fill="none" stroke="black" d="M144,-36.1686C144,-43.869 144,-53.0257 144,-61.5834"/>
<polygon fill="black" stroke="black" points="140.5,-61.5867 144,-71.5867 147.5,-61.5868 140.5,-61.5867"/>
<text text-anchor="middle" x="156.99" y="-41.2686" font-family="Times Roman,serif" font-size="8.00">gen</text>
</g>
</g>
</svg>
