<?xml version="1.0" encoding="UTF-8" standalone="no"?>
<!DOCTYPE svg PUBLIC "-//W3C//DTD SVG 1.1//EN"
 "http://www.w3.org/Graphics/SVG/1.1/DTD/svg11.dtd">
<!-- Generated by graphviz version 2.22.2 (20090313.1817)
 -->
<!-- Title: PROV Pages: 1 -->
<svg width="309pt" height="332pt"
 viewBox="0.00 0.00 309.00 332.00" xmlns="http://www.w3.org/2000/svg" xmlns:xlink="http://www.w3.org/1999/xlink">
<g id="graph1" class="graph" transform="scale(1 1) rotate(0) translate(4 328)">
<title>PROV</title>
<polygon fill="white" stroke="white" points="-4,5 -4,-328 306,-328 306,5 -4,5"/>
<!-- nreport_editing -->
<g id="node1" class="node"><title>nreport_editing</title>
<polygon fill="#9fb1fc" stroke="#0000ff" points="190.987,-108 99.0132,-108 99.0132,-72 190.987,-72 190.987,-108"/>
<text text-anchor="middle" x="145" y="-85.8" font-family="Times Roman,serif" font-size="14.00">report&#45;editing</text>
</g>
<!-- nreport_1 -->
<g id="node7" class="node"><title>nreport_1</title>
<ellipse fill="#fffc87" stroke="#808080" cx="43" cy="-162" rx="42.1367" ry="18"/>
<text text-anchor="middle" x="43" y="-157.8" font-family="Times Roman,serif" font-size="14.00">report&#45;1</text>
</g>
<!-- nreport_editing&#45;&gt;nreport_1 -->
<g id="edge16" class="edge"><title>nreport_editing&#45;&gt;nreport_1</title>
<path fill="none" stroke="black" d="M119.261,-108.169C105.25,-118.059 87.8361,-130.351 73.1873,-140.691"/>
<polygon fill="black" stroke="black" points="71.0798,-137.895 64.9285,-146.521 75.1166,-143.614 71.0798,-137.895"/>
<text text-anchor="middle" x="120.625" y="-120.706" font-family="Times Roman,serif" font-size="8.00">use</text>
</g>
<!-- nreport_2 -->
<g id="node8" class="node"><title>nreport_2</title>
<ellipse fill="#fffc87" stroke="#808080" cx="145" cy="-162" rx="42.1367" ry="18"/>
<text text-anchor="middle" x="145" y="-157.8" font-family="Times Roman,serif" font-size="14.00">report&#45;2</text>
</g>
<!-- nreport_editing&#45;&gt;nreport_2 -->
<g id="edge18" class="edge"><title>nreport_editing&#45;&gt;nreport_2</title>
<path fill="none" stroke="black" d="M145,-108.169C145,-115.869 145,-125.026 145,-133.583"/>
<polygon fill="black" stroke="black" points="141.5,-133.587 145,-143.587 148.5,-133.587 141.5,-133.587"/>
<text text-anchor="middle" x="157.99" y="-113.269" font-family="Times Roman,serif" font-size="8.00">use</text>
</g>
<!-- nreport_3 -->
<g id="node9" class="node"><title>nreport_3</title>
<ellipse fill="#fffc87" stroke="#808080" cx="247" cy="-162" rx="42.1367" ry="18"/>
<text text-anchor="middle" x="247" y="-157.8" font-family="Times Roman,serif" font-size="14.00">report&#45;3</text>
</g>
<!-- nreport_editing&#45;&gt;nreport_3 -->
<g id="edge20" class="edge"><title>nreport_editing&#45;&gt;nreport_3</title>
<path fill="none" stroke="black" d="M170.739,-108.169C184.75,-118.059 202.164,-130.351 216.813,-140.691"/>
<polygon fill="black" stroke="black" points="214.883,-143.614 225.071,-146.521 218.92,-137.895 214.883,-143.614"/>
<text text-anchor="middle" x="184.358" y="-99.481" font-family="Times Roman,serif" font-size="8.00">use</text>
</g>
<!-- nanalytics1 -->
<g id="node2" class="node"><title>nanalytics1</title>
<polygon fill="#9fb1fc" stroke="#0000ff" points="84.8817,-252 13.1183,-252 13.1183,-216 84.8817,-216 84.8817,-252"/>
<text text-anchor="middle" x="49" y="-229.8" font-family="Times Roman,serif" font-size="14.00">analytics1</text>
</g>
<!-- nAJC_summary -->
<g id="node5" class="node"><title>nAJC_summary</title>
<ellipse fill="#fffc87" stroke="#808080" cx="67" cy="-306" rx="66.8578" ry="18"/>
<text text-anchor="middle" x="67" y="-301.8" font-family="Times Roman,serif" font-size="14.00">AJC&#45;summary</text>
</g>
<!-- nanalytics1&#45;&gt;nAJC_summary -->
<g id="edge2" class="edge"><title>nanalytics1&#45;&gt;nAJC_summary</title>
<path fill="none" stroke="black" d="M53.5422,-252.169C55.4884,-259.954 57.8068,-269.227 59.9663,-277.865"/>
<polygon fill="black" stroke="black" points="56.5758,-278.734 62.3967,-287.587 63.3668,-277.036 56.5758,-278.734"/>
<text text-anchor="middle" x="67.9637" y="-253.894" font-family="Times Roman,serif" font-size="8.00">use</text>
</g>
<!-- nanalytics2 -->
<g id="node3" class="node"><title>nanalytics2</title>
<polygon fill="#9fb1fc" stroke="#0000ff" points="180.882,-252 109.118,-252 109.118,-216 180.882,-216 180.882,-252"/>
<text text-anchor="middle" x="145" y="-229.8" font-family="Times Roman,serif" font-size="14.00">analytics2</text>
</g>
<!-- nanalytics2&#45;&gt;nAJC_summary -->
<g id="edge4" class="edge"><title>nanalytics2&#45;&gt;nAJC_summary</title>
<path fill="none" stroke="black" d="M125.317,-252.169C115.679,-261.065 103.935,-271.906 93.5188,-281.521"/>
<polygon fill="black" stroke="black" points="90.8433,-279.228 85.8692,-288.582 95.5912,-284.371 90.8433,-279.228"/>
<text text-anchor="middle" x="128.617" y="-264.401" font-family="Times Roman,serif" font-size="8.00">use</text>
</g>
<!-- nBNC_summary -->
<g id="node6" class="node"><title>nBNC_summary</title>
<ellipse fill="#fffc87" stroke="#808080" cx="231" cy="-306" rx="70.0414" ry="18"/>
<text text-anchor="middle" x="231" y="-301.8" font-family="Times Roman,serif" font-size="14.00">BNC&#45;summary</text>
</g>
<!-- nanalytics2&#45;&gt;nBNC_summary -->
<g id="edge6" class="edge"><title>nanalytics2&#45;&gt;nBNC_summary</title>
<path fill="none" stroke="black" d="M166.701,-252.169C177.537,-261.24 190.785,-272.332 202.435,-282.085"/>
<polygon fill="black" stroke="black" points="200.281,-284.847 210.196,-288.582 204.775,-279.479 200.281,-284.847"/>
<text text-anchor="middle" x="180.791" y="-244.623" font-family="Times Roman,serif" font-size="8.00">use</text>
</g>
<!-- nanalytics3 -->
<g id="node4" class="node"><title>nanalytics3</title>
<polygon fill="#9fb1fc" stroke="#0000ff" points="276.882,-252 205.118,-252 205.118,-216 276.882,-216 276.882,-252"/>
<text text-anchor="middle" x="241" y="-229.8" font-family="Times Roman,serif" font-size="14.00">analytics3</text>
</g>
<!-- nanalytics3&#45;&gt;nBNC_summary -->
<g id="edge8" class="edge"><title>nanalytics3&#45;&gt;nBNC_summary</title>
<path fill="none" stroke="black" d="M238.477,-252.169C237.407,-259.869 236.135,-269.026 234.947,-277.583"/>
<polygon fill="black" stroke="black" points="231.466,-277.2 233.557,-287.587 238.4,-278.163 231.466,-277.2"/>
<text text-anchor="middle" x="250.312" y="-258.984" font-family="Times Roman,serif" font-size="8.00">use</text>
</g>
<!-- nreport_1&#45;&gt;nanalytics1 -->
<g id="edge10" class="edge"><title>nreport_1&#45;&gt;nanalytics1</title>
<path fill="none" stroke="black" d="M44.5141,-180.169C45.1558,-187.869 45.9188,-197.026 46.6319,-205.583"/>
<polygon fill="black" stroke="black" points="43.1471,-205.912 47.4656,-215.587 50.1229,-205.331 43.1471,-205.912"/>
<text text-anchor="middle" x="58.0824" y="-184.164" font-family="Times Roman,serif" font-size="8.00">gen</text>
</g>
<!-- nreport_2&#45;&gt;nanalytics2 -->
<g id="edge12" class="edge"><title>nreport_2&#45;&gt;nanalytics2</title>
<path fill="none" stroke="black" d="M145,-180.169C145,-187.869 145,-197.026 145,-205.583"/>
<polygon fill="black" stroke="black" points="141.5,-205.587 145,-215.587 148.5,-205.587 141.5,-205.587"/>
<text text-anchor="middle" x="157.99" y="-185.269" font-family="Times Roman,serif" font-size="8.00">gen</text>
</g>
<!-- nreport_3&#45;&gt;nanalytics3 -->
<g id="edge14" class="edge"><title>nreport_3&#45;&gt;nanalytics3</title>
<path fill="none" stroke="black" d="M245.486,-180.169C244.844,-187.869 244.081,-197.026 243.368,-205.583"/>
<polygon fill="black" stroke="black" points="239.877,-205.331 242.534,-215.587 246.853,-205.912 239.877,-205.331"/>
<text text-anchor="middle" x="257.809" y="-186.322" font-family="Times Roman,serif" font-size="8.00">gen</text>
</g>
<!-- nadvice_report -->
<g id="node10" class="node"><title>nadvice_report</title>
<ellipse fill="#fffc87" stroke="#808080" cx="145" cy="-18" rx="62.0089" ry="18"/>
<text text-anchor="middle" x="145" y="-13.8" font-family="Times Roman,serif" font-size="14.00">advice&#45;report</text>
</g>
<!-- nadvice_report&#45;&gt;nreport_editing -->
<g id="edge22" class="edge"><title>nadvice_report&#45;&gt;nreport_editing</title>
<path fill="none" stroke="black" d="M145,-36.1686C145,-43.869 145,-53.0257 145,-61.5834"/>
<polygon fill="black" stroke="black" points="141.5,-61.5867 145,-71.5867 148.5,-61.5868 141.5,-61.5867"/>
<text text-anchor="middle" x="157.99" y="-41.2686" font-family="Times Roman,serif" font-size="8.00">gen</text>
</g>
</g>
</svg>
