<?xml version="1.0" encoding="UTF-8" standalone="no"?>
<!DOCTYPE svg PUBLIC "-//W3C//DTD SVG 1.1//EN"
 "http://www.w3.org/Graphics/SVG/1.1/DTD/svg11.dtd">
<!-- Generated by graphviz version 2.22.2 (20090313.1817)
 -->
<!-- Title: PROV Pages: 1 -->
<svg width="1152pt" height="600pt"
 viewBox="0.00 0.00 1152.00 599.72" xmlns="http://www.w3.org/2000/svg" xmlns:xlink="http://www.w3.org/1999/xlink">
<g id="graph1" class="graph" transform="scale(0.948929 0.948929) rotate(0) translate(4 628)">
<title>PROV</title>
<polygon fill="white" stroke="white" points="-4,5 -4,-628 1211,-628 1211,5 -4,5"/>
<!-- nquery_X_Time_1 -->
<g id="node1" class="node"><title>nquery_X_Time_1</title>
<polygon fill="#9fb1fc" stroke="#0000ff" points="107.758,-546 0.241761,-546 0.241761,-510 107.758,-510 107.758,-546"/>
<text text-anchor="middle" x="54" y="-523.8" font-family="Times Roman,serif" font-size="14.00">query&#45;X&#45;Time&#45;1</text>
</g>
<!-- nTwitterFeed_time_1 -->
<g id="node13" class="node"><title>nTwitterFeed_time_1</title>
<ellipse fill="#fffc87" stroke="#808080" cx="195" cy="-606" rx="86.1534" ry="18"/>
<text text-anchor="middle" x="195" y="-601.8" font-family="Times Roman,serif" font-size="14.00">TwitterFeed&#45;time&#45;1</text>
</g>
<!-- nquery_X_Time_1&#45;&gt;nTwitterFeed_time_1 -->
<g id="edge8" class="edge"><title>nquery_X_Time_1&#45;&gt;nTwitterFeed_time_1</title>
<path fill="none" stroke="black" d="M86.7026,-546.091C107.204,-557.432 133.759,-572.122 155.442,-584.117"/>
<polygon fill="black" stroke="black" points="153.961,-587.297 164.405,-589.075 157.349,-581.172 153.961,-587.297"/>
<text text-anchor="middle" x="99.5535" y="-535.954" font-family="Times Roman,serif" font-size="8.00">use</text>
</g>
<!-- nquery_X_Time_2 -->
<g id="node2" class="node"><title>nquery_X_Time_2</title>
<polygon fill="#9fb1fc" stroke="#0000ff" points="389.758,-546 282.242,-546 282.242,-510 389.758,-510 389.758,-546"/>
<text text-anchor="middle" x="336" y="-523.8" font-family="Times Roman,serif" font-size="14.00">query&#45;X&#45;Time&#45;2</text>
</g>
<!-- nTwitterFeed_time_2 -->
<g id="node16" class="node"><title>nTwitterFeed_time_2</title>
<ellipse fill="#fffc87" stroke="#808080" cx="603" cy="-606" rx="86.1534" ry="18"/>
<text text-anchor="middle" x="603" y="-601.8" font-family="Times Roman,serif" font-size="14.00">TwitterFeed&#45;time&#45;2</text>
</g>
<!-- nquery_X_Time_2&#45;&gt;nTwitterFeed_time_2 -->
<g id="edge10" class="edge"><title>nquery_X_Time_2&#45;&gt;nTwitterFeed_time_2</title>
<path fill="none" stroke="black" d="M381.564,-546.004C387.399,-548.119 393.318,-550.171 399,-552 444.01,-566.486 495.487,-580.091 535.47,-590.021"/>
<polygon fill="black" stroke="black" points="534.829,-593.468 545.376,-592.465 536.505,-586.672 534.829,-593.468"/>
<text text-anchor="middle" x="393.028" y="-533.93" font-family="Times Roman,serif" font-size="8.00">use</text>
</g>
<!-- nquery_X_Time_3 -->
<g id="node3" class="node"><title>nquery_X_Time_3</title>
<polygon fill="#9fb1fc" stroke="#0000ff" points="797.758,-546 690.242,-546 690.242,-510 797.758,-510 797.758,-546"/>
<text text-anchor="middle" x="744" y="-523.8" font-family="Times Roman,serif" font-size="14.00">query&#45;X&#45;Time&#45;3</text>
</g>
<!-- nTwitterFeed_time_3 -->
<g id="node19" class="node"><title>nTwitterFeed_time_3</title>
<ellipse fill="#fffc87" stroke="#808080" cx="996" cy="-606" rx="86.1534" ry="18"/>
<text text-anchor="middle" x="996" y="-601.8" font-family="Times Roman,serif" font-size="14.00">TwitterFeed&#45;time&#45;3</text>
</g>
<!-- nquery_X_Time_3&#45;&gt;nTwitterFeed_time_3 -->
<g id="edge12" class="edge"><title>nquery_X_Time_3&#45;&gt;nTwitterFeed_time_3</title>
<path fill="none" stroke="black" d="M789.942,-546.023C795.66,-548.112 801.447,-550.153 807,-552 848.141,-565.686 895,-579.088 931.767,-589.117"/>
<polygon fill="black" stroke="black" points="931.289,-592.614 941.856,-591.854 933.121,-585.858 931.289,-592.614"/>
<text text-anchor="middle" x="801.433" y="-533.981" font-family="Times Roman,serif" font-size="8.00">use</text>
</g>
<!-- nquery_Y_Time_1 -->
<g id="node4" class="node"><title>nquery_Y_Time_1</title>
<polygon fill="#9fb1fc" stroke="#0000ff" points="515.758,-546 408.242,-546 408.242,-510 515.758,-510 515.758,-546"/>
<text text-anchor="middle" x="462" y="-523.8" font-family="Times Roman,serif" font-size="14.00">query&#45;Y&#45;Time&#45;1</text>
</g>
<!-- nquery_Y_Time_1&#45;&gt;nTwitterFeed_time_1 -->
<g id="edge14" class="edge"><title>nquery_Y_Time_1&#45;&gt;nTwitterFeed_time_1</title>
<path fill="none" stroke="black" d="M416.436,-546.004C410.601,-548.119 404.682,-550.171 399,-552 353.99,-566.486 302.513,-580.091 262.53,-590.021"/>
<polygon fill="black" stroke="black" points="261.495,-586.672 252.624,-592.465 263.171,-593.468 261.495,-586.672"/>
<text text-anchor="middle" x="413.79" y="-558.369" font-family="Times Roman,serif" font-size="8.00">use</text>
</g>
<!-- nquery_Y_Time_2 -->
<g id="node5" class="node"><title>nquery_Y_Time_2</title>
<polygon fill="#9fb1fc" stroke="#0000ff" points="923.758,-546 816.242,-546 816.242,-510 923.758,-510 923.758,-546"/>
<text text-anchor="middle" x="870" y="-523.8" font-family="Times Roman,serif" font-size="14.00">query&#45;Y&#45;Time&#45;2</text>
</g>
<!-- nquery_Y_Time_2&#45;&gt;nTwitterFeed_time_2 -->
<g id="edge16" class="edge"><title>nquery_Y_Time_2&#45;&gt;nTwitterFeed_time_2</title>
<path fill="none" stroke="black" d="M824.436,-546.004C818.601,-548.119 812.682,-550.171 807,-552 761.99,-566.486 710.513,-580.091 670.53,-590.021"/>
<polygon fill="black" stroke="black" points="669.495,-586.672 660.624,-592.465 671.171,-593.468 669.495,-586.672"/>
<text text-anchor="middle" x="821.79" y="-558.369" font-family="Times Roman,serif" font-size="8.00">use</text>
</g>
<!-- nquery_Y_Time_3 -->
<g id="node6" class="node"><title>nquery_Y_Time_3</title>
<polygon fill="#9fb1fc" stroke="#0000ff" points="1049.76,-546 942.242,-546 942.242,-510 1049.76,-510 1049.76,-546"/>
<text text-anchor="middle" x="996" y="-523.8" font-family="Times Roman,serif" font-size="14.00">query&#45;Y&#45;Time&#45;3</text>
</g>
<!-- nquery_Y_Time_3&#45;&gt;nTwitterFeed_time_3 -->
<g id="edge18" class="edge"><title>nquery_Y_Time_3&#45;&gt;nTwitterFeed_time_3</title>
<path fill="none" stroke="black" d="M996,-546.091C996,-555.474 996,-567.15 996,-577.695"/>
<polygon fill="black" stroke="black" points="992.5,-577.737 996,-587.737 999.5,-577.737 992.5,-577.737"/>
<text text-anchor="middle" x="1008.99" y="-551.191" font-family="Times Roman,serif" font-size="8.00">use</text>
</g>
<!-- nconsolidate_X -->
<g id="node7" class="node"><title>nconsolidate_X</title>
<polygon fill="#9fb1fc" stroke="#0000ff" points="392.766,-396 299.234,-396 299.234,-360 392.766,-360 392.766,-396"/>
<text text-anchor="middle" x="346" y="-373.8" font-family="Times Roman,serif" font-size="14.00">consolidate&#45;X</text>
</g>
<!-- nX_tweets_1 -->
<g id="node22" class="node"><title>nX_tweets_1</title>
<ellipse fill="#fffc87" stroke="#808080" cx="86" cy="-450" rx="53.9336" ry="18"/>
<text text-anchor="middle" x="86" y="-445.8" font-family="Times Roman,serif" font-size="14.00">X&#45;tweets&#45;1</text>
</g>
<!-- nconsolidate_X&#45;&gt;nX_tweets_1 -->
<g id="edge32" class="edge"><title>nconsolidate_X&#45;&gt;nX_tweets_1</title>
<path fill="none" stroke="black" d="M299.217,-390.955C253.628,-403.58 184.484,-422.727 137.386,-435.77"/>
<polygon fill="black" stroke="black" points="136.39,-432.414 127.687,-438.456 138.258,-439.16 136.39,-432.414"/>
<text text-anchor="middle" x="295.456" y="-403.076" font-family="Times Roman,serif" font-size="8.00">use</text>
</g>
<!-- nX_tweets_2 -->
<g id="node23" class="node"><title>nX_tweets_2</title>
<ellipse fill="#fffc87" stroke="#808080" cx="346" cy="-450" rx="53.9336" ry="18"/>
<text text-anchor="middle" x="346" y="-445.8" font-family="Times Roman,serif" font-size="14.00">X&#45;tweets&#45;2</text>
</g>
<!-- nconsolidate_X&#45;&gt;nX_tweets_2 -->
<g id="edge34" class="edge"><title>nconsolidate_X&#45;&gt;nX_tweets_2</title>
<path fill="none" stroke="black" d="M346,-396.169C346,-403.869 346,-413.026 346,-421.583"/>
<polygon fill="black" stroke="black" points="342.5,-421.587 346,-431.587 349.5,-421.587 342.5,-421.587"/>
<text text-anchor="middle" x="358.99" y="-401.269" font-family="Times Roman,serif" font-size="8.00">use</text>
</g>
<!-- nX_tweets_3 -->
<g id="node24" class="node"><title>nX_tweets_3</title>
<ellipse fill="#fffc87" stroke="#808080" cx="715" cy="-450" rx="53.9336" ry="18"/>
<text text-anchor="middle" x="715" y="-445.8" font-family="Times Roman,serif" font-size="14.00">X&#45;tweets&#45;3</text>
</g>
<!-- nconsolidate_X&#45;&gt;nX_tweets_3 -->
<g id="edge36" class="edge"><title>nconsolidate_X&#45;&gt;nX_tweets_3</title>
<path fill="none" stroke="black" d="M393.109,-387.192C460.84,-400.408 585.561,-424.744 658.269,-438.93"/>
<polygon fill="black" stroke="black" points="657.686,-442.383 668.172,-440.863 659.027,-435.512 657.686,-442.383"/>
<text text-anchor="middle" x="402.958" y="-373.478" font-family="Times Roman,serif" font-size="8.00">use</text>
</g>
<!-- nX_profile -->
<g id="node28" class="node"><title>nX_profile</title>
<ellipse fill="#fffc87" stroke="#808080" cx="227" cy="-450" rx="46.9632" ry="18"/>
<text text-anchor="middle" x="227" y="-445.8" font-family="Times Roman,serif" font-size="14.00">X&#45;profile</text>
</g>
<!-- nconsolidate_X&#45;&gt;nX_profile -->
<g id="edge38" class="edge"><title>nconsolidate_X&#45;&gt;nX_profile</title>
<path fill="none" stroke="black" d="M315.971,-396.169C299.202,-406.315 278.255,-418.988 260.899,-429.49"/>
<polygon fill="black" stroke="black" points="258.935,-426.587 252.191,-434.758 262.559,-432.576 258.935,-426.587"/>
<text text-anchor="middle" x="316.279" y="-408.765" font-family="Times Roman,serif" font-size="8.00">use</text>
</g>
<!-- nconsolidate_Y -->
<g id="node8" class="node"><title>nconsolidate_Y</title>
<polygon fill="#9fb1fc" stroke="#0000ff" points="906.766,-396 813.234,-396 813.234,-360 906.766,-360 906.766,-396"/>
<text text-anchor="middle" x="860" y="-373.8" font-family="Times Roman,serif" font-size="14.00">consolidate&#45;Y</text>
</g>
<!-- nY_tweets_1 -->
<g id="node25" class="node"><title>nY_tweets_1</title>
<ellipse fill="#fffc87" stroke="#808080" cx="550" cy="-450" rx="53.9336" ry="18"/>
<text text-anchor="middle" x="550" y="-445.8" font-family="Times Roman,serif" font-size="14.00">Y&#45;tweets&#45;1</text>
</g>
<!-- nconsolidate_Y&#45;&gt;nY_tweets_1 -->
<g id="edge40" class="edge"><title>nconsolidate_Y&#45;&gt;nY_tweets_1</title>
<path fill="none" stroke="black" d="M812.918,-388.935C756.877,-401.951 663.474,-423.645 604.397,-437.366"/>
<polygon fill="black" stroke="black" points="603.452,-433.992 594.503,-439.664 605.036,-440.811 603.452,-433.992"/>
<text text-anchor="middle" x="808.551" y="-400.886" font-family="Times Roman,serif" font-size="8.00">use</text>
</g>
<!-- nY_tweets_2 -->
<g id="node26" class="node"><title>nY_tweets_2</title>
<ellipse fill="#fffc87" stroke="#808080" cx="860" cy="-450" rx="53.9336" ry="18"/>
<text text-anchor="middle" x="860" y="-445.8" font-family="Times Roman,serif" font-size="14.00">Y&#45;tweets&#45;2</text>
</g>
<!-- nconsolidate_Y&#45;&gt;nY_tweets_2 -->
<g id="edge42" class="edge"><title>nconsolidate_Y&#45;&gt;nY_tweets_2</title>
<path fill="none" stroke="black" d="M860,-396.169C860,-403.869 860,-413.026 860,-421.583"/>
<polygon fill="black" stroke="black" points="856.5,-421.587 860,-431.587 863.5,-421.587 856.5,-421.587"/>
<text text-anchor="middle" x="872.99" y="-401.269" font-family="Times Roman,serif" font-size="8.00">use</text>
</g>
<!-- nY_tweets_3 -->
<g id="node27" class="node"><title>nY_tweets_3</title>
<ellipse fill="#fffc87" stroke="#808080" cx="986" cy="-450" rx="53.9336" ry="18"/>
<text text-anchor="middle" x="986" y="-445.8" font-family="Times Roman,serif" font-size="14.00">Y&#45;tweets&#45;3</text>
</g>
<!-- nconsolidate_Y&#45;&gt;nY_tweets_3 -->
<g id="edge44" class="edge"><title>nconsolidate_Y&#45;&gt;nY_tweets_3</title>
<path fill="none" stroke="black" d="M891.795,-396.169C909.382,-406.219 931.31,-418.749 949.584,-429.191"/>
<polygon fill="black" stroke="black" points="948.076,-432.36 958.495,-434.283 951.549,-426.282 948.076,-432.36"/>
<text text-anchor="middle" x="904.752" y="-386.211" font-family="Times Roman,serif" font-size="8.00">use</text>
</g>
<!-- nY_profile -->
<g id="node29" class="node"><title>nY_profile</title>
<ellipse fill="#fffc87" stroke="#808080" cx="1105" cy="-450" rx="46.9632" ry="18"/>
<text text-anchor="middle" x="1105" y="-445.8" font-family="Times Roman,serif" font-size="14.00">Y&#45;profile</text>
</g>
<!-- nconsolidate_Y&#45;&gt;nY_profile -->
<g id="edge46" class="edge"><title>nconsolidate_Y&#45;&gt;nY_profile</title>
<path fill="none" stroke="black" d="M907.116,-391.001C945.429,-401.683 1000.83,-417.382 1049,-432 1052.38,-433.025 1055.86,-434.1 1059.36,-435.195"/>
<polygon fill="black" stroke="black" points="1058.62,-438.629 1069.21,-438.303 1060.72,-431.954 1058.62,-438.629"/>
<text text-anchor="middle" x="917.836" y="-378.109" font-family="Times Roman,serif" font-size="8.00">use</text>
</g>
<!-- nreport_editing -->
<g id="node9" class="node"><title>nreport_editing</title>
<polygon fill="#9fb1fc" stroke="#0000ff" points="660.987,-108 569.013,-108 569.013,-72 660.987,-72 660.987,-108"/>
<text text-anchor="middle" x="615" y="-85.8" font-family="Times Roman,serif" font-size="14.00">report&#45;editing</text>
</g>
<!-- nreport_1 -->
<g id="node32" class="node"><title>nreport_1</title>
<ellipse fill="#fffc87" stroke="#808080" cx="513" cy="-162" rx="42.1367" ry="18"/>
<text text-anchor="middle" x="513" y="-157.8" font-family="Times Roman,serif" font-size="14.00">report&#45;1</text>
</g>
<!-- nreport_editing&#45;&gt;nreport_1 -->
<g id="edge70" class="edge"><title>nreport_editing&#45;&gt;nreport_1</title>
<path fill="none" stroke="black" d="M589.261,-108.169C575.25,-118.059 557.836,-130.351 543.187,-140.691"/>
<polygon fill="black" stroke="black" points="541.08,-137.895 534.929,-146.521 545.117,-143.614 541.08,-137.895"/>
<text text-anchor="middle" x="590.625" y="-120.706" font-family="Times Roman,serif" font-size="8.00">use</text>
</g>
<!-- nreport_2 -->
<g id="node33" class="node"><title>nreport_2</title>
<ellipse fill="#fffc87" stroke="#808080" cx="615" cy="-162" rx="42.1367" ry="18"/>
<text text-anchor="middle" x="615" y="-157.8" font-family="Times Roman,serif" font-size="14.00">report&#45;2</text>
</g>
<!-- nreport_editing&#45;&gt;nreport_2 -->
<g id="edge72" class="edge"><title>nreport_editing&#45;&gt;nreport_2</title>
<path fill="none" stroke="black" d="M615,-108.169C615,-115.869 615,-125.026 615,-133.583"/>
<polygon fill="black" stroke="black" points="611.5,-133.587 615,-143.587 618.5,-133.587 611.5,-133.587"/>
<text text-anchor="middle" x="627.99" y="-113.269" font-family="Times Roman,serif" font-size="8.00">use</text>
</g>
<!-- nreport_3 -->
<g id="node34" class="node"><title>nreport_3</title>
<ellipse fill="#fffc87" stroke="#808080" cx="717" cy="-162" rx="42.1367" ry="18"/>
<text text-anchor="middle" x="717" y="-157.8" font-family="Times Roman,serif" font-size="14.00">report&#45;3</text>
</g>
<!-- nreport_editing&#45;&gt;nreport_3 -->
<g id="edge74" class="edge"><title>nreport_editing&#45;&gt;nreport_3</title>
<path fill="none" stroke="black" d="M640.739,-108.169C654.75,-118.059 672.164,-130.351 686.813,-140.691"/>
<polygon fill="black" stroke="black" points="684.883,-143.614 695.071,-146.521 688.92,-137.895 684.883,-143.614"/>
<text text-anchor="middle" x="654.358" y="-99.481" font-family="Times Roman,serif" font-size="8.00">use</text>
</g>
<!-- nanalytics1 -->
<g id="node10" class="node"><title>nanalytics1</title>
<polygon fill="#9fb1fc" stroke="#0000ff" points="560.882,-252 489.118,-252 489.118,-216 560.882,-216 560.882,-252"/>
<text text-anchor="middle" x="525" y="-229.8" font-family="Times Roman,serif" font-size="14.00">analytics1</text>
</g>
<!-- nX_summary -->
<g id="node30" class="node"><title>nX_summary</title>
<ellipse fill="#fffc87" stroke="#808080" cx="537" cy="-306" rx="57.161" ry="18"/>
<text text-anchor="middle" x="537" y="-301.8" font-family="Times Roman,serif" font-size="14.00">X&#45;summary</text>
</g>
<!-- nanalytics1&#45;&gt;nX_summary -->
<g id="edge52" class="edge"><title>nanalytics1&#45;&gt;nX_summary</title>
<path fill="none" stroke="black" d="M528.028,-252.169C529.312,-259.869 530.838,-269.026 532.264,-277.583"/>
<polygon fill="black" stroke="black" points="528.835,-278.298 533.931,-287.587 535.739,-277.147 528.835,-278.298"/>
<text text-anchor="middle" x="542.075" y="-255.031" font-family="Times Roman,serif" font-size="8.00">use</text>
</g>
<!-- nY_summary -->
<g id="node31" class="node"><title>nY_summary</title>
<ellipse fill="#fffc87" stroke="#808080" cx="693" cy="-306" rx="57.161" ry="18"/>
<text text-anchor="middle" x="693" y="-301.8" font-family="Times Roman,serif" font-size="14.00">Y&#45;summary</text>
</g>
<!-- nanalytics1&#45;&gt;nY_summary -->
<g id="edge54" class="edge"><title>nanalytics1&#45;&gt;nY_summary</title>
<path fill="none" stroke="black" d="M561.04,-249.446C587,-260.571 622.15,-275.636 649.646,-287.42"/>
<polygon fill="black" stroke="black" points="648.454,-290.717 659.024,-291.439 651.211,-284.283 648.454,-290.717"/>
<text text-anchor="middle" x="573.051" y="-238.06" font-family="Times Roman,serif" font-size="8.00">use</text>
</g>
<!-- nanalytics2 -->
<g id="node11" class="node"><title>nanalytics2</title>
<polygon fill="#9fb1fc" stroke="#0000ff" points="650.882,-252 579.118,-252 579.118,-216 650.882,-216 650.882,-252"/>
<text text-anchor="middle" x="615" y="-229.8" font-family="Times Roman,serif" font-size="14.00">analytics2</text>
</g>
<!-- nanalytics2&#45;&gt;nX_summary -->
<g id="edge56" class="edge"><title>nanalytics2&#45;&gt;nX_summary</title>
<path fill="none" stroke="black" d="M595.317,-252.169C585.512,-261.22 573.527,-272.283 562.978,-282.02"/>
<polygon fill="black" stroke="black" points="560.576,-279.474 555.602,-288.829 565.324,-284.618 560.576,-279.474"/>
<text text-anchor="middle" x="598.617" y="-264.401" font-family="Times Roman,serif" font-size="8.00">use</text>
</g>
<!-- nanalytics2&#45;&gt;nY_summary -->
<g id="edge58" class="edge"><title>nanalytics2&#45;&gt;nY_summary</title>
<path fill="none" stroke="black" d="M634.683,-252.169C644.488,-261.22 656.473,-272.283 667.022,-282.02"/>
<polygon fill="black" stroke="black" points="664.676,-284.618 674.398,-288.829 669.424,-279.474 664.676,-284.618"/>
<text text-anchor="middle" x="649.005" y="-245.31" font-family="Times Roman,serif" font-size="8.00">use</text>
</g>
<!-- nanalytics3 -->
<g id="node12" class="node"><title>nanalytics3</title>
<polygon fill="#9fb1fc" stroke="#0000ff" points="740.882,-252 669.118,-252 669.118,-216 740.882,-216 740.882,-252"/>
<text text-anchor="middle" x="705" y="-229.8" font-family="Times Roman,serif" font-size="14.00">analytics3</text>
</g>
<!-- nanalytics3&#45;&gt;nX_summary -->
<g id="edge60" class="edge"><title>nanalytics3&#45;&gt;nX_summary</title>
<path fill="none" stroke="black" d="M668.96,-249.446C643,-260.571 607.85,-275.636 580.354,-287.42"/>
<polygon fill="black" stroke="black" points="578.789,-284.283 570.976,-291.439 581.546,-290.717 578.789,-284.283"/>
<text text-anchor="middle" x="667.183" y="-261.94" font-family="Times Roman,serif" font-size="8.00">use</text>
</g>
<!-- nanalytics3&#45;&gt;nY_summary -->
<g id="edge62" class="edge"><title>nanalytics3&#45;&gt;nY_summary</title>
<path fill="none" stroke="black" d="M701.972,-252.169C700.688,-259.869 699.162,-269.026 697.736,-277.583"/>
<polygon fill="black" stroke="black" points="694.261,-277.147 696.069,-287.587 701.165,-278.298 694.261,-277.147"/>
<text text-anchor="middle" x="713.553" y="-259.302" font-family="Times Roman,serif" font-size="8.00">use</text>
</g>
<!-- nann0 -->
<g id="node14" class="node"><title>nann0</title>
<polygon fill="none" stroke="gray" points="258,-551.5 126,-551.5 126,-504.5 264,-504.5 264,-545.5 258,-551.5"/>
<polyline fill="none" stroke="gray" points="258,-551.5 258,-545.5 "/>
<polyline fill="none" stroke="gray" points="264,-545.5 258,-545.5 "/>
<text text-anchor="start" x="136" y="-537.667" font-family="Times Roman,serif" font-size="10.00">from:</text>
<text text-anchor="start" x="166" y="-537.667" font-family="Times Roman,serif" font-size="10.00">2012&#45;09&#45;27T09:00:00</text>
<text text-anchor="start" x="136" y="-525.667" font-family="Times Roman,serif" font-size="10.00">to:</text>
<text text-anchor="start" x="166" y="-525.667" font-family="Times Roman,serif" font-size="10.00">2012&#45;10&#45;27T09:30:00</text>
<text text-anchor="start" x="136" y="-513.667" font-family="Times Roman,serif" font-size="10.00">Status:</text>
<text text-anchor="start" x="166" y="-513.667" font-family="Times Roman,serif" font-size="10.00">Unclassified</text>
</g>
<!-- nann0&#45;&gt;nTwitterFeed_time_1 -->
<g id="edge2" class="edge"><title>nann0&#45;&gt;nTwitterFeed_time_1</title>
<path fill="none" stroke="gray" stroke-dasharray="5,2" d="M195,-551.826C195,-563.296 195,-576.839 195,-587.515"/>
</g>
<!-- nann1 -->
<g id="node17" class="node"><title>nann1</title>
<polygon fill="none" stroke="gray" points="666,-551.5 534,-551.5 534,-504.5 672,-504.5 672,-545.5 666,-551.5"/>
<polyline fill="none" stroke="gray" points="666,-551.5 666,-545.5 "/>
<polyline fill="none" stroke="gray" points="672,-545.5 666,-545.5 "/>
<text text-anchor="start" x="544" y="-537.667" font-family="Times Roman,serif" font-size="10.00">from:</text>
<text text-anchor="start" x="574" y="-537.667" font-family="Times Roman,serif" font-size="10.00">2012&#45;12&#45;28T09:00:00</text>
<text text-anchor="start" x="544" y="-525.667" font-family="Times Roman,serif" font-size="10.00">to:</text>
<text text-anchor="start" x="574" y="-525.667" font-family="Times Roman,serif" font-size="10.00">2013&#45;01&#45;28T09:30:00</text>
<text text-anchor="start" x="544" y="-513.667" font-family="Times Roman,serif" font-size="10.00">Status:</text>
<text text-anchor="start" x="574" y="-513.667" font-family="Times Roman,serif" font-size="10.00">Unclassified</text>
</g>
<!-- nann1&#45;&gt;nTwitterFeed_time_2 -->
<g id="edge4" class="edge"><title>nann1&#45;&gt;nTwitterFeed_time_2</title>
<path fill="none" stroke="gray" stroke-dasharray="5,2" d="M603,-551.826C603,-563.296 603,-576.839 603,-587.515"/>
</g>
<!-- nann2 -->
<g id="node20" class="node"><title>nann2</title>
<polygon fill="none" stroke="gray" points="1200,-551.5 1068,-551.5 1068,-504.5 1206,-504.5 1206,-545.5 1200,-551.5"/>
<polyline fill="none" stroke="gray" points="1200,-551.5 1200,-545.5 "/>
<polyline fill="none" stroke="gray" points="1206,-545.5 1200,-545.5 "/>
<text text-anchor="start" x="1078" y="-537.667" font-family="Times Roman,serif" font-size="10.00">from:</text>
<text text-anchor="start" x="1108" y="-537.667" font-family="Times Roman,serif" font-size="10.00">2013&#45;02&#45;29T09:00:00</text>
<text text-anchor="start" x="1078" y="-525.667" font-family="Times Roman,serif" font-size="10.00">to:</text>
<text text-anchor="start" x="1108" y="-525.667" font-family="Times Roman,serif" font-size="10.00">2013&#45;03&#45;29T09:30:00</text>
<text text-anchor="start" x="1078" y="-513.667" font-family="Times Roman,serif" font-size="10.00">Status:</text>
<text text-anchor="start" x="1108" y="-513.667" font-family="Times Roman,serif" font-size="10.00">Unclassified</text>
</g>
<!-- nann2&#45;&gt;nTwitterFeed_time_3 -->
<g id="edge6" class="edge"><title>nann2&#45;&gt;nTwitterFeed_time_3</title>
<path fill="none" stroke="gray" stroke-dasharray="5,2" d="M1094.31,-551.614C1072.43,-563.721 1046.28,-578.183 1026.46,-589.149"/>
</g>
<!-- nX_tweets_1&#45;&gt;nquery_X_Time_1 -->
<g id="edge20" class="edge"><title>nX_tweets_1&#45;&gt;nquery_X_Time_1</title>
<path fill="none" stroke="black" d="M78.5781,-468.091C74.6484,-477.67 69.7384,-489.638 65.3423,-500.353"/>
<polygon fill="black" stroke="black" points="62.05,-499.157 61.4925,-509.737 68.5262,-501.814 62.05,-499.157"/>
<text text-anchor="middle" x="87.7497" y="-477.56" font-family="Times Roman,serif" font-size="8.00">gen</text>
</g>
<!-- nX_tweets_2&#45;&gt;nquery_X_Time_2 -->
<g id="edge22" class="edge"><title>nX_tweets_2&#45;&gt;nquery_X_Time_2</title>
<path fill="none" stroke="black" d="M343.681,-468.091C342.478,-477.474 340.981,-489.15 339.629,-499.695"/>
<polygon fill="black" stroke="black" points="336.142,-499.373 338.341,-509.737 343.085,-500.263 336.142,-499.373"/>
<text text-anchor="middle" x="355.612" y="-474.782" font-family="Times Roman,serif" font-size="8.00">gen</text>
</g>
<!-- nX_tweets_3&#45;&gt;nquery_X_Time_3 -->
<g id="edge24" class="edge"><title>nX_tweets_3&#45;&gt;nquery_X_Time_3</title>
<path fill="none" stroke="black" d="M721.726,-468.091C725.287,-477.67 729.737,-489.638 733.721,-500.353"/>
<polygon fill="black" stroke="black" points="730.444,-501.584 737.21,-509.737 737.006,-499.144 730.444,-501.584"/>
<text text-anchor="middle" x="736.516" y="-468.194" font-family="Times Roman,serif" font-size="8.00">gen</text>
</g>
<!-- nY_tweets_1&#45;&gt;nquery_Y_Time_1 -->
<g id="edge26" class="edge"><title>nY_tweets_1&#45;&gt;nquery_Y_Time_1</title>
<path fill="none" stroke="black" d="M530.905,-466.925C518.989,-477.487 503.439,-491.27 490.127,-503.069"/>
<polygon fill="black" stroke="black" points="487.754,-500.496 482.592,-509.748 492.397,-505.734 487.754,-500.496"/>
<text text-anchor="middle" x="533.909" y="-479.221" font-family="Times Roman,serif" font-size="8.00">gen</text>
</g>
<!-- nY_tweets_2&#45;&gt;nquery_Y_Time_2 -->
<g id="edge28" class="edge"><title>nY_tweets_2&#45;&gt;nquery_Y_Time_2</title>
<path fill="none" stroke="black" d="M862.319,-468.091C863.522,-477.474 865.019,-489.15 866.371,-499.695"/>
<polygon fill="black" stroke="black" points="862.915,-500.263 867.659,-509.737 869.858,-499.373 862.915,-500.263"/>
<text text-anchor="middle" x="876.158" y="-471.478" font-family="Times Roman,serif" font-size="8.00">gen</text>
</g>
<!-- nY_tweets_3&#45;&gt;nquery_Y_Time_3 -->
<g id="edge30" class="edge"><title>nY_tweets_3&#45;&gt;nquery_Y_Time_3</title>
<path fill="none" stroke="black" d="M988.319,-468.091C989.522,-477.474 991.019,-489.15 992.371,-499.695"/>
<polygon fill="black" stroke="black" points="988.915,-500.263 993.659,-509.737 995.858,-499.373 988.915,-500.263"/>
<text text-anchor="middle" x="1002.16" y="-471.478" font-family="Times Roman,serif" font-size="8.00">gen</text>
</g>
<!-- nX_summary&#45;&gt;nconsolidate_X -->
<g id="edge48" class="edge"><title>nX_summary&#45;&gt;nconsolidate_X</title>
<path fill="none" stroke="black" d="M500.173,-319.882C472.47,-330.326 434.01,-344.823 402.435,-356.726"/>
<polygon fill="black" stroke="black" points="400.999,-353.527 392.877,-360.329 403.469,-360.077 400.999,-353.527"/>
<text text-anchor="middle" x="497.737" y="-332.283" font-family="Times Roman,serif" font-size="8.00">gen</text>
</g>
<!-- nY_summary&#45;&gt;nconsolidate_Y -->
<g id="edge50" class="edge"><title>nY_summary&#45;&gt;nconsolidate_Y</title>
<path fill="none" stroke="black" d="M726.795,-320.57C750.223,-330.671 781.859,-344.31 808.421,-355.762"/>
<polygon fill="black" stroke="black" points="807.385,-359.127 817.953,-359.872 810.156,-352.699 807.385,-359.127"/>
<text text-anchor="middle" x="738.825" y="-309.211" font-family="Times Roman,serif" font-size="8.00">gen</text>
</g>
<!-- nreport_1&#45;&gt;nanalytics1 -->
<g id="edge64" class="edge"><title>nreport_1&#45;&gt;nanalytics1</title>
<path fill="none" stroke="black" d="M516.028,-180.169C517.312,-187.869 518.838,-197.026 520.264,-205.583"/>
<polygon fill="black" stroke="black" points="516.835,-206.298 521.931,-215.587 523.739,-205.147 516.835,-206.298"/>
<text text-anchor="middle" x="530.075" y="-183.031" font-family="Times Roman,serif" font-size="8.00">gen</text>
</g>
<!-- nreport_2&#45;&gt;nanalytics2 -->
<g id="edge66" class="edge"><title>nreport_2&#45;&gt;nanalytics2</title>
<path fill="none" stroke="black" d="M615,-180.169C615,-187.869 615,-197.026 615,-205.583"/>
<polygon fill="black" stroke="black" points="611.5,-205.587 615,-215.587 618.5,-205.587 611.5,-205.587"/>
<text text-anchor="middle" x="627.99" y="-185.269" font-family="Times Roman,serif" font-size="8.00">gen</text>
</g>
<!-- nreport_3&#45;&gt;nanalytics3 -->
<g id="edge68" class="edge"><title>nreport_3&#45;&gt;nanalytics3</title>
<path fill="none" stroke="black" d="M713.972,-180.169C712.688,-187.869 711.162,-197.026 709.736,-205.583"/>
<polygon fill="black" stroke="black" points="706.261,-205.147 708.069,-215.587 713.165,-206.298 706.261,-205.147"/>
<text text-anchor="middle" x="725.553" y="-187.302" font-family="Times Roman,serif" font-size="8.00">gen</text>
</g>
<!-- nadvice_report -->
<g id="node35" class="node"><title>nadvice_report</title>
<ellipse fill="#fffc87" stroke="#808080" cx="615" cy="-18" rx="62.0089" ry="18"/>
<text text-anchor="middle" x="615" y="-13.8" font-family="Times Roman,serif" font-size="14.00">advice&#45;report</text>
</g>
<!-- nadvice_report&#45;&gt;nreport_editing -->
<g id="edge76" class="edge"><title>nadvice_report&#45;&gt;nreport_editing</title>
<path fill="none" stroke="black" d="M615,-36.1686C615,-43.869 615,-53.0257 615,-61.5834"/>
<polygon fill="black" stroke="black" points="611.5,-61.5867 615,-71.5867 618.5,-61.5868 611.5,-61.5867"/>
<text text-anchor="middle" x="627.99" y="-41.2686" font-family="Times Roman,serif" font-size="8.00">gen</text>
</g>
</g>
</svg>
