<?xml version="1.0" encoding="UTF-8" standalone="no"?>
<!DOCTYPE svg PUBLIC "-//W3C//DTD SVG 1.1//EN"
 "http://www.w3.org/Graphics/SVG/1.1/DTD/svg11.dtd">
<!-- Generated by graphviz version 2.22.2 (20090313.1817)
 -->
<!-- Title: PROV Pages: 1 -->
<svg width="300pt" height="332pt"
 viewBox="0.00 0.00 300.00 332.00" xmlns="http://www.w3.org/2000/svg" xmlns:xlink="http://www.w3.org/1999/xlink">
<g id="graph1" class="graph" transform="scale(1 1) rotate(0) translate(4 328)">
<title>PROV</title>
<polygon fill="white" stroke="white" points="-4,5 -4,-328 297,-328 297,5 -4,5"/>
<!-- nreport_editing -->
<g id="node1" class="node"><title>nreport_editing</title>
<polygon fill="#9fb1fc" stroke="#0000ff" points="190.987,-108 99.0132,-108 99.0132,-72 190.987,-72 190.987,-108"/>
<text text-anchor="middle" x="145" y="-85.8" font-family="Times Roman,serif" font-size="14.00">report&#45;editing</text>
</g>
<!-- nreport_1 -->
<g id="node7" class="node"><title>nreport_1</title>
<ellipse fill="#fffc87" stroke="#808080" cx="43" cy="-162" rx="42.1367" ry="18"/>
<text text-anchor="middle" x="43" y="-157.8" font-family="Times Roman,serif" font-size="14.00">report&#45;1</text>
</g>
<!-- nreport_editing&#45;&gt;nreport_1 -->
<g id="edge20" class="edge"><title>nreport_editing&#45;&gt;nreport_1</title>
<path fill="none" stroke="black" d="M119.261,-108.169C105.25,-118.059 87.8361,-130.351 73.1873,-140.691"/>
<polygon fill="black" stroke="black" points="71.0798,-137.895 64.9285,-146.521 75.1166,-143.614 71.0798,-137.895"/>
<text text-anchor="middle" x="120.625" y="-120.706" font-family="Times Roman,serif" font-size="8.00">use</text>
</g>
<!-- nreport_2 -->
<g id="node8" class="node"><title>nreport_2</title>
<ellipse fill="#fffc87" stroke="#808080" cx="145" cy="-162" rx="42.1367" ry="18"/>
<text text-anchor="middle" x="145" y="-157.8" font-family="Times Roman,serif" font-size="14.00">report&#45;2</text>
</g>
<!-- nreport_editing&#45;&gt;nreport_2 -->
<g id="edge22" class="edge"><title>nreport_editing&#45;&gt;nreport_2</title>
<path fill="none" stroke="black" d="M145,-108.169C145,-115.869 145,-125.026 145,-133.583"/>
<polygon fill="black" stroke="black" points="141.5,-133.587 145,-143.587 148.5,-133.587 141.5,-133.587"/>
<text text-anchor="middle" x="157.99" y="-113.269" font-family="Times Roman,serif" font-size="8.00">use</text>
</g>
<!-- nreport_3 -->
<g id="node9" class="node"><title>nreport_3</title>
<ellipse fill="#fffc87" stroke="#808080" cx="247" cy="-162" rx="42.1367" ry="18"/>
<text text-anchor="middle" x="247" y="-157.8" font-family="Times Roman,serif" font-size="14.00">report&#45;3</text>
</g>
<!-- nreport_editing&#45;&gt;nreport_3 -->
<g id="edge24" class="edge"><title>nreport_editing&#45;&gt;nreport_3</title>
<path fill="none" stroke="black" d="M170.739,-108.169C184.75,-118.059 202.164,-130.351 216.813,-140.691"/>
<polygon fill="black" stroke="black" points="214.883,-143.614 225.071,-146.521 218.92,-137.895 214.883,-143.614"/>
<text text-anchor="middle" x="184.358" y="-99.481" font-family="Times Roman,serif" font-size="8.00">use</text>
</g>
<!-- nanalytics1 -->
<g id="node2" class="node"><title>nanalytics1</title>
<polygon fill="#9fb1fc" stroke="#0000ff" points="90.8817,-252 19.1183,-252 19.1183,-216 90.8817,-216 90.8817,-252"/>
<text text-anchor="middle" x="55" y="-229.8" font-family="Times Roman,serif" font-size="14.00">analytics1</text>
</g>
<!-- nAJC_summary -->
<g id="node5" class="node"><title>nAJC_summary</title>
<ellipse fill="#fffc87" stroke="#808080" cx="67" cy="-306" rx="66.8578" ry="18"/>
<text text-anchor="middle" x="67" y="-301.8" font-family="Times Roman,serif" font-size="14.00">AJC&#45;summary</text>
</g>
<!-- nanalytics1&#45;&gt;nAJC_summary -->
<g id="edge2" class="edge"><title>nanalytics1&#45;&gt;nAJC_summary</title>
<path fill="none" stroke="black" d="M58.0281,-252.169C59.3115,-259.869 60.8376,-269.026 62.2639,-277.583"/>
<polygon fill="black" stroke="black" points="58.8347,-278.298 63.9311,-287.587 65.7394,-277.147 58.8347,-278.298"/>
<text text-anchor="middle" x="72.0747" y="-255.031" font-family="Times Roman,serif" font-size="8.00">use</text>
</g>
<!-- nBNC_summary -->
<g id="node6" class="node"><title>nBNC_summary</title>
<ellipse fill="#fffc87" stroke="#808080" cx="222" cy="-306" rx="70.0414" ry="18"/>
<text text-anchor="middle" x="222" y="-301.8" font-family="Times Roman,serif" font-size="14.00">BNC&#45;summary</text>
</g>
<!-- nanalytics1&#45;&gt;nBNC_summary -->
<g id="edge4" class="edge"><title>nanalytics1&#45;&gt;nBNC_summary</title>
<path fill="none" stroke="black" d="M91.2365,-249.623C116.379,-260.463 150.047,-274.978 176.923,-286.566"/>
<polygon fill="black" stroke="black" points="175.553,-289.786 186.121,-290.531 178.324,-283.358 175.553,-289.786"/>
<text text-anchor="middle" x="103.267" y="-238.263" font-family="Times Roman,serif" font-size="8.00">use</text>
</g>
<!-- nanalytics2 -->
<g id="node3" class="node"><title>nanalytics2</title>
<polygon fill="#9fb1fc" stroke="#0000ff" points="180.882,-252 109.118,-252 109.118,-216 180.882,-216 180.882,-252"/>
<text text-anchor="middle" x="145" y="-229.8" font-family="Times Roman,serif" font-size="14.00">analytics2</text>
</g>
<!-- nanalytics2&#45;&gt;nAJC_summary -->
<g id="edge6" class="edge"><title>nanalytics2&#45;&gt;nAJC_summary</title>
<path fill="none" stroke="black" d="M125.317,-252.169C115.679,-261.065 103.935,-271.906 93.5188,-281.521"/>
<polygon fill="black" stroke="black" points="90.8433,-279.228 85.8692,-288.582 95.5912,-284.371 90.8433,-279.228"/>
<text text-anchor="middle" x="128.617" y="-264.401" font-family="Times Roman,serif" font-size="8.00">use</text>
</g>
<!-- nanalytics2&#45;&gt;nBNC_summary -->
<g id="edge8" class="edge"><title>nanalytics2&#45;&gt;nBNC_summary</title>
<path fill="none" stroke="black" d="M164.43,-252.169C173.945,-261.065 185.538,-271.906 195.821,-281.521"/>
<polygon fill="black" stroke="black" points="193.678,-284.309 203.373,-288.582 198.459,-279.196 193.678,-284.309"/>
<text text-anchor="middle" x="178.781" y="-245.403" font-family="Times Roman,serif" font-size="8.00">use</text>
</g>
<!-- nanalytics3 -->
<g id="node4" class="node"><title>nanalytics3</title>
<polygon fill="#9fb1fc" stroke="#0000ff" points="270.882,-252 199.118,-252 199.118,-216 270.882,-216 270.882,-252"/>
<text text-anchor="middle" x="235" y="-229.8" font-family="Times Roman,serif" font-size="14.00">analytics3</text>
</g>
<!-- nanalytics3&#45;&gt;nAJC_summary -->
<g id="edge10" class="edge"><title>nanalytics3&#45;&gt;nAJC_summary</title>
<path fill="none" stroke="black" d="M198.96,-249.446C173.517,-260.35 139.247,-275.037 112.008,-286.711"/>
<polygon fill="black" stroke="black" points="110.505,-283.547 102.692,-290.703 113.262,-289.981 110.505,-283.547"/>
<text text-anchor="middle" x="197.183" y="-261.94" font-family="Times Roman,serif" font-size="8.00">use</text>
</g>
<!-- nanalytics3&#45;&gt;nBNC_summary -->
<g id="edge12" class="edge"><title>nanalytics3&#45;&gt;nBNC_summary</title>
<path fill="none" stroke="black" d="M231.72,-252.169C230.329,-259.869 228.676,-269.026 227.131,-277.583"/>
<polygon fill="black" stroke="black" points="223.657,-277.124 225.325,-287.587 230.546,-278.368 223.657,-277.124"/>
<text text-anchor="middle" x="243.171" y="-259.457" font-family="Times Roman,serif" font-size="8.00">use</text>
</g>
<!-- nreport_1&#45;&gt;nanalytics1 -->
<g id="edge14" class="edge"><title>nreport_1&#45;&gt;nanalytics1</title>
<path fill="none" stroke="black" d="M46.0281,-180.169C47.3115,-187.869 48.8376,-197.026 50.2639,-205.583"/>
<polygon fill="black" stroke="black" points="46.8347,-206.298 51.9311,-215.587 53.7394,-205.147 46.8347,-206.298"/>
<text text-anchor="middle" x="60.0747" y="-183.031" font-family="Times Roman,serif" font-size="8.00">gen</text>
</g>
<!-- nreport_2&#45;&gt;nanalytics2 -->
<g id="edge16" class="edge"><title>nreport_2&#45;&gt;nanalytics2</title>
<path fill="none" stroke="black" d="M145,-180.169C145,-187.869 145,-197.026 145,-205.583"/>
<polygon fill="black" stroke="black" points="141.5,-205.587 145,-215.587 148.5,-205.587 141.5,-205.587"/>
<text text-anchor="middle" x="157.99" y="-185.269" font-family="Times Roman,serif" font-size="8.00">gen</text>
</g>
<!-- nreport_3&#45;&gt;nanalytics3 -->
<g id="edge18" class="edge"><title>nreport_3&#45;&gt;nanalytics3</title>
<path fill="none" stroke="black" d="M243.972,-180.169C242.688,-187.869 241.162,-197.026 239.736,-205.583"/>
<polygon fill="black" stroke="black" points="236.261,-205.147 238.069,-215.587 243.165,-206.298 236.261,-205.147"/>
<text text-anchor="middle" x="255.553" y="-187.302" font-family="Times Roman,serif" font-size="8.00">gen</text>
</g>
<!-- nadvice_reports -->
<g id="node10" class="node"><title>nadvice_reports</title>
<ellipse fill="#fffc87" stroke="#808080" cx="145" cy="-18" rx="65.7663" ry="18"/>
<text text-anchor="middle" x="145" y="-13.8" font-family="Times Roman,serif" font-size="14.00">advice&#45;reports</text>
</g>
<!-- nadvice_reports&#45;&gt;nreport_editing -->
<g id="edge26" class="edge"><title>nadvice_reports&#45;&gt;nreport_editing</title>
<path fill="none" stroke="black" d="M145,-36.1686C145,-43.869 145,-53.0257 145,-61.5834"/>
<polygon fill="black" stroke="black" points="141.5,-61.5867 145,-71.5867 148.5,-61.5868 141.5,-61.5867"/>
<text text-anchor="middle" x="157.99" y="-41.2686" font-family="Times Roman,serif" font-size="8.00">gen</text>
</g>
</g>
</svg>
