<?xml version="1.0" encoding="UTF-8" standalone="no"?>
<!DOCTYPE svg PUBLIC "-//W3C//DTD SVG 1.1//EN"
 "http://www.w3.org/Graphics/SVG/1.1/DTD/svg11.dtd">
<!-- Generated by graphviz version 2.22.2 (20090313.1817)
 -->
<!-- Title: PROV Pages: 1 -->
<svg width="300pt" height="332pt"
 viewBox="0.00 0.00 300.00 332.00" xmlns="http://www.w3.org/2000/svg" xmlns:xlink="http://www.w3.org/1999/xlink">
<g id="graph1" class="graph" transform="scale(1 1) rotate(0) translate(4 328)">
<title>PROV</title>
<polygon fill="white" stroke="white" points="-4,5 -4,-328 297,-328 297,5 -4,5"/>
<!-- nabs -->
<g id="node1" class="node"><title>nabs</title>
<polygon fill="#9fb1fc" stroke="#0000ff" points="156,-108 102,-108 102,-72 156,-72 156,-108"/>
<text text-anchor="middle" x="129" y="-85.8" font-family="Times Roman,serif" font-size="14.00">abs</text>
</g>
<!-- nBNC_summary -->
<g id="node5" class="node"><title>nBNC_summary</title>
<ellipse fill="#fffc87" stroke="#808080" cx="70" cy="-306" rx="70.0414" ry="18"/>
<text text-anchor="middle" x="70" y="-301.8" font-family="Times Roman,serif" font-size="14.00">BNC&#45;summary</text>
</g>
<!-- nabs&#45;&gt;nBNC_summary -->
<g id="edge18" class="edge"><title>nabs&#45;&gt;nBNC_summary</title>
<path fill="none" stroke="black" d="M105.455,-108.197C95.0796,-117.65 83.9182,-130.122 78,-144 59.3117,-187.824 61.8312,-244.481 65.6889,-277.866"/>
<polygon fill="black" stroke="black" points="62.2243,-278.367 66.9633,-287.842 69.1678,-277.48 62.2243,-278.367"/>
<text text-anchor="middle" x="108.844" y="-120.41" font-family="Times Roman,serif" font-size="8.00">use</text>
</g>
<!-- nreport_1 -->
<g id="node6" class="node"><title>nreport_1</title>
<ellipse fill="#fffc87" stroke="#808080" cx="231" cy="-162" rx="42.1367" ry="18"/>
<text text-anchor="middle" x="231" y="-157.8" font-family="Times Roman,serif" font-size="14.00">report&#45;1</text>
</g>
<!-- nabs&#45;&gt;nreport_1 -->
<g id="edge14" class="edge"><title>nabs&#45;&gt;nreport_1</title>
<path fill="none" stroke="black" d="M154.739,-108.169C168.75,-118.059 186.164,-130.351 200.813,-140.691"/>
<polygon fill="black" stroke="black" points="198.883,-143.614 209.071,-146.521 202.92,-137.895 198.883,-143.614"/>
<text text-anchor="middle" x="168.358" y="-99.481" font-family="Times Roman,serif" font-size="8.00">use</text>
</g>
<!-- nreport_2 -->
<g id="node7" class="node"><title>nreport_2</title>
<ellipse fill="#fffc87" stroke="#808080" cx="129" cy="-162" rx="42.1367" ry="18"/>
<text text-anchor="middle" x="129" y="-157.8" font-family="Times Roman,serif" font-size="14.00">report&#45;2</text>
</g>
<!-- nabs&#45;&gt;nreport_2 -->
<g id="edge16" class="edge"><title>nabs&#45;&gt;nreport_2</title>
<path fill="none" stroke="black" d="M129,-108.169C129,-115.869 129,-125.026 129,-133.583"/>
<polygon fill="black" stroke="black" points="125.5,-133.587 129,-143.587 132.5,-133.587 125.5,-133.587"/>
<text text-anchor="middle" x="141.99" y="-113.269" font-family="Times Roman,serif" font-size="8.00">use</text>
</g>
<!-- nanalytics1 -->
<g id="node2" class="node"><title>nanalytics1</title>
<polygon fill="#9fb1fc" stroke="#0000ff" points="260.882,-252 189.118,-252 189.118,-216 260.882,-216 260.882,-252"/>
<text text-anchor="middle" x="225" y="-229.8" font-family="Times Roman,serif" font-size="14.00">analytics1</text>
</g>
<!-- nAJC_summary -->
<g id="node4" class="node"><title>nAJC_summary</title>
<ellipse fill="#fffc87" stroke="#808080" cx="225" cy="-306" rx="66.8578" ry="18"/>
<text text-anchor="middle" x="225" y="-301.8" font-family="Times Roman,serif" font-size="14.00">AJC&#45;summary</text>
</g>
<!-- nanalytics1&#45;&gt;nAJC_summary -->
<g id="edge2" class="edge"><title>nanalytics1&#45;&gt;nAJC_summary</title>
<path fill="none" stroke="black" d="M225,-252.169C225,-259.869 225,-269.026 225,-277.583"/>
<polygon fill="black" stroke="black" points="221.5,-277.587 225,-287.587 228.5,-277.587 221.5,-277.587"/>
<text text-anchor="middle" x="237.99" y="-257.269" font-family="Times Roman,serif" font-size="8.00">use</text>
</g>
<!-- nanalytics1&#45;&gt;nBNC_summary -->
<g id="edge4" class="edge"><title>nanalytics1&#45;&gt;nBNC_summary</title>
<path fill="none" stroke="black" d="M189.05,-250.699C166.47,-261.188 137.21,-274.78 113.348,-285.864"/>
<polygon fill="black" stroke="black" points="111.754,-282.745 104.159,-290.132 114.703,-289.094 111.754,-282.745"/>
<text text-anchor="middle" x="187.721" y="-263.24" font-family="Times Roman,serif" font-size="8.00">use</text>
</g>
<!-- nanalytics2 -->
<g id="node3" class="node"><title>nanalytics2</title>
<polygon fill="#9fb1fc" stroke="#0000ff" points="164.882,-252 93.1183,-252 93.1183,-216 164.882,-216 164.882,-252"/>
<text text-anchor="middle" x="129" y="-229.8" font-family="Times Roman,serif" font-size="14.00">analytics2</text>
</g>
<!-- nanalytics2&#45;&gt;nAJC_summary -->
<g id="edge6" class="edge"><title>nanalytics2&#45;&gt;nAJC_summary</title>
<path fill="none" stroke="black" d="M153.225,-252.169C165.527,-261.395 180.617,-272.713 193.781,-282.586"/>
<polygon fill="black" stroke="black" points="192.005,-285.629 202.105,-288.829 196.205,-280.028 192.005,-285.629"/>
<text text-anchor="middle" x="167.019" y="-243.876" font-family="Times Roman,serif" font-size="8.00">use</text>
</g>
<!-- nanalytics2&#45;&gt;nBNC_summary -->
<g id="edge8" class="edge"><title>nanalytics2&#45;&gt;nBNC_summary</title>
<path fill="none" stroke="black" d="M114.112,-252.169C107.141,-260.675 98.7149,-270.958 91.1023,-280.248"/>
<polygon fill="black" stroke="black" points="88.3101,-278.133 84.679,-288.087 93.7245,-282.57 88.3101,-278.133"/>
<text text-anchor="middle" x="119.406" y="-263.803" font-family="Times Roman,serif" font-size="8.00">use</text>
</g>
<!-- nreport_1&#45;&gt;nanalytics1 -->
<g id="edge10" class="edge"><title>nreport_1&#45;&gt;nanalytics1</title>
<path fill="none" stroke="black" d="M229.486,-180.169C228.844,-187.869 228.081,-197.026 227.368,-205.583"/>
<polygon fill="black" stroke="black" points="223.877,-205.331 226.534,-215.587 230.853,-205.912 223.877,-205.331"/>
<text text-anchor="middle" x="241.809" y="-186.322" font-family="Times Roman,serif" font-size="8.00">gen</text>
</g>
<!-- nreport_2&#45;&gt;nanalytics2 -->
<g id="edge12" class="edge"><title>nreport_2&#45;&gt;nanalytics2</title>
<path fill="none" stroke="black" d="M129,-180.169C129,-187.869 129,-197.026 129,-205.583"/>
<polygon fill="black" stroke="black" points="125.5,-205.587 129,-215.587 132.5,-205.587 125.5,-205.587"/>
<text text-anchor="middle" x="141.99" y="-185.269" font-family="Times Roman,serif" font-size="8.00">gen</text>
</g>
<!-- nadvice_reports -->
<g id="node8" class="node"><title>nadvice_reports</title>
<ellipse fill="#fffc87" stroke="#808080" cx="129" cy="-18" rx="65.7663" ry="18"/>
<text text-anchor="middle" x="129" y="-13.8" font-family="Times Roman,serif" font-size="14.00">advice&#45;reports</text>
</g>
<!-- nadvice_reports&#45;&gt;nabs -->
<g id="edge20" class="edge"><title>nadvice_reports&#45;&gt;nabs</title>
<path fill="none" stroke="black" d="M129,-36.1686C129,-43.869 129,-53.0257 129,-61.5834"/>
<polygon fill="black" stroke="black" points="125.5,-61.5867 129,-71.5867 132.5,-61.5868 125.5,-61.5867"/>
<text text-anchor="middle" x="141.99" y="-41.2686" font-family="Times Roman,serif" font-size="8.00">gen</text>
</g>
</g>
</svg>
