<?xml version="1.0" encoding="UTF-8" standalone="no"?>
<!DOCTYPE svg PUBLIC "-//W3C//DTD SVG 1.1//EN"
 "http://www.w3.org/Graphics/SVG/1.1/DTD/svg11.dtd">
<!-- Generated by graphviz version 2.22.2 (20090313.1817)
 -->
<!-- Title: PROV Pages: 1 -->
<svg width="449pt" height="332pt"
 viewBox="0.00 0.00 449.00 332.00" xmlns="http://www.w3.org/2000/svg" xmlns:xlink="http://www.w3.org/1999/xlink">
<g id="graph1" class="graph" transform="scale(1 1) rotate(0) translate(4 328)">
<title>PROV</title>
<polygon fill="white" stroke="white" points="-4,5 -4,-328 446,-328 446,5 -4,5"/>
<!-- nconsolidate_X -->
<g id="node1" class="node"><title>nconsolidate_X</title>
<polygon fill="#9fb1fc" stroke="#0000ff" points="203.766,-324 110.234,-324 110.234,-288 203.766,-288 203.766,-324"/>
<text text-anchor="middle" x="157" y="-301.8" font-family="Times Roman,serif" font-size="14.00">consolidate&#45;X</text>
</g>
<!-- nconsolidate_Y -->
<g id="node2" class="node"><title>nconsolidate_Y</title>
<polygon fill="#9fb1fc" stroke="#0000ff" points="359.766,-324 266.234,-324 266.234,-288 359.766,-288 359.766,-324"/>
<text text-anchor="middle" x="313" y="-301.8" font-family="Times Roman,serif" font-size="14.00">consolidate&#45;Y</text>
</g>
<!-- nreport_editing -->
<g id="node3" class="node"><title>nreport_editing</title>
<polygon fill="#9fb1fc" stroke="#0000ff" points="319.987,-36 228.013,-36 228.013,-1.77636e-14 319.987,-3.55271e-15 319.987,-36"/>
<text text-anchor="middle" x="274" y="-13.8" font-family="Times Roman,serif" font-size="14.00">report&#45;editing</text>
</g>
<!-- nreport_1 -->
<g id="node13" class="node"><title>nreport_1</title>
<ellipse fill="#fffc87" stroke="#808080" cx="121" cy="-90" rx="42.1367" ry="18"/>
<text text-anchor="middle" x="121" y="-85.8" font-family="Times Roman,serif" font-size="14.00">report&#45;1</text>
</g>
<!-- nreport_editing&#45;&gt;nreport_1 -->
<g id="edge32" class="edge"><title>nreport_editing&#45;&gt;nreport_1</title>
<path fill="none" stroke="black" d="M235.392,-36.1686C211.894,-47.2262 182.016,-61.2864 158.688,-72.2642"/>
<polygon fill="black" stroke="black" points="157.011,-69.1854 149.453,-76.6103 159.992,-75.5191 157.011,-69.1854"/>
<text text-anchor="middle" x="234.137" y="-48.7161" font-family="Times Roman,serif" font-size="8.00">use</text>
</g>
<!-- nreport_2 -->
<g id="node16" class="node"><title>nreport_2</title>
<ellipse fill="#fffc87" stroke="#808080" cx="325" cy="-90" rx="42.1367" ry="18"/>
<text text-anchor="middle" x="325" y="-85.8" font-family="Times Roman,serif" font-size="14.00">report&#45;2</text>
</g>
<!-- nreport_editing&#45;&gt;nreport_2 -->
<g id="edge34" class="edge"><title>nreport_editing&#45;&gt;nreport_2</title>
<path fill="none" stroke="black" d="M286.869,-36.1686C292.924,-44.7165 300.25,-55.0588 306.856,-64.3844"/>
<polygon fill="black" stroke="black" points="304.026,-66.4451 312.662,-72.5823 309.738,-62.3989 304.026,-66.4451"/>
<text text-anchor="middle" x="301.805" y="-32.3802" font-family="Times Roman,serif" font-size="8.00">use</text>
</g>
<!-- nreport_3 -->
<g id="node19" class="node"><title>nreport_3</title>
<ellipse fill="#fffc87" stroke="#808080" cx="223" cy="-90" rx="42.1367" ry="18"/>
<text text-anchor="middle" x="223" y="-85.8" font-family="Times Roman,serif" font-size="14.00">report&#45;3</text>
</g>
<!-- nreport_editing&#45;&gt;nreport_3 -->
<g id="edge36" class="edge"><title>nreport_editing&#45;&gt;nreport_3</title>
<path fill="none" stroke="black" d="M261.131,-36.1686C255.076,-44.7165 247.75,-55.0588 241.144,-64.3844"/>
<polygon fill="black" stroke="black" points="238.262,-62.3989 235.338,-72.5823 243.974,-66.4451 238.262,-62.3989"/>
<text text-anchor="middle" x="267.396" y="-47.3975" font-family="Times Roman,serif" font-size="8.00">use</text>
</g>
<!-- nanalytics1 -->
<g id="node4" class="node"><title>nanalytics1</title>
<polygon fill="#9fb1fc" stroke="#0000ff" points="168.882,-180 97.1183,-180 97.1183,-144 168.882,-144 168.882,-180"/>
<text text-anchor="middle" x="133" y="-157.8" font-family="Times Roman,serif" font-size="14.00">analytics1</text>
</g>
<!-- nX_summary -->
<g id="node7" class="node"><title>nX_summary</title>
<ellipse fill="#fffc87" stroke="#808080" cx="157" cy="-234" rx="57.161" ry="18"/>
<text text-anchor="middle" x="157" y="-229.8" font-family="Times Roman,serif" font-size="14.00">X&#45;summary</text>
</g>
<!-- nanalytics1&#45;&gt;nX_summary -->
<g id="edge16" class="edge"><title>nanalytics1&#45;&gt;nX_summary</title>
<path fill="none" stroke="black" d="M139.056,-180.169C141.72,-188.159 144.906,-197.718 147.85,-206.549"/>
<polygon fill="black" stroke="black" points="144.546,-207.707 151.029,-216.087 151.187,-205.493 144.546,-207.707"/>
<text text-anchor="middle" x="153.752" y="-180.776" font-family="Times Roman,serif" font-size="8.00">use</text>
</g>
<!-- nanalytics2 -->
<g id="node5" class="node"><title>nanalytics2</title>
<polygon fill="#9fb1fc" stroke="#0000ff" points="348.882,-180 277.118,-180 277.118,-144 348.882,-144 348.882,-180"/>
<text text-anchor="middle" x="313" y="-157.8" font-family="Times Roman,serif" font-size="14.00">analytics2</text>
</g>
<!-- nanalytics2&#45;&gt;nX_summary -->
<g id="edge18" class="edge"><title>nanalytics2&#45;&gt;nX_summary</title>
<path fill="none" stroke="black" d="M276.818,-178.699C253.457,-189.481 222.99,-203.543 198.625,-214.788"/>
<polygon fill="black" stroke="black" points="196.889,-211.735 189.276,-219.103 199.822,-218.091 196.889,-211.735"/>
<text text-anchor="middle" x="275.452" y="-191.237" font-family="Times Roman,serif" font-size="8.00">use</text>
</g>
<!-- nY_summary -->
<g id="node10" class="node"><title>nY_summary</title>
<ellipse fill="#fffc87" stroke="#808080" cx="313" cy="-234" rx="57.161" ry="18"/>
<text text-anchor="middle" x="313" y="-229.8" font-family="Times Roman,serif" font-size="14.00">Y&#45;summary</text>
</g>
<!-- nanalytics2&#45;&gt;nY_summary -->
<g id="edge20" class="edge"><title>nanalytics2&#45;&gt;nY_summary</title>
<path fill="none" stroke="black" d="M313,-180.169C313,-187.869 313,-197.026 313,-205.583"/>
<polygon fill="black" stroke="black" points="309.5,-205.587 313,-215.587 316.5,-205.587 309.5,-205.587"/>
<text text-anchor="middle" x="325.99" y="-185.269" font-family="Times Roman,serif" font-size="8.00">use</text>
</g>
<!-- nanalytics3 -->
<g id="node6" class="node"><title>nanalytics3</title>
<polygon fill="#9fb1fc" stroke="#0000ff" points="258.882,-180 187.118,-180 187.118,-144 258.882,-144 258.882,-180"/>
<text text-anchor="middle" x="223" y="-157.8" font-family="Times Roman,serif" font-size="14.00">analytics3</text>
</g>
<!-- nanalytics3&#45;&gt;nX_summary -->
<g id="edge22" class="edge"><title>nanalytics3&#45;&gt;nX_summary</title>
<path fill="none" stroke="black" d="M206.345,-180.169C198.35,-188.891 188.642,-199.482 179.959,-208.954"/>
<polygon fill="black" stroke="black" points="177.143,-206.846 172.966,-216.582 182.304,-211.576 177.143,-206.846"/>
<text text-anchor="middle" x="210.853" y="-192.075" font-family="Times Roman,serif" font-size="8.00">use</text>
</g>
<!-- nanalytics3&#45;&gt;nY_summary -->
<g id="edge24" class="edge"><title>nanalytics3&#45;&gt;nY_summary</title>
<path fill="none" stroke="black" d="M245.711,-180.169C257.33,-189.464 271.601,-200.881 284.006,-210.805"/>
<polygon fill="black" stroke="black" points="281.847,-213.56 291.842,-217.074 286.22,-208.094 281.847,-213.56"/>
<text text-anchor="middle" x="259.682" y="-172.31" font-family="Times Roman,serif" font-size="8.00">use</text>
</g>
<!-- nX_summary&#45;&gt;nconsolidate_X -->
<g id="edge12" class="edge"><title>nX_summary&#45;&gt;nconsolidate_X</title>
<path fill="none" stroke="black" d="M157,-252.169C157,-259.869 157,-269.026 157,-277.583"/>
<polygon fill="black" stroke="black" points="153.5,-277.587 157,-287.587 160.5,-277.587 153.5,-277.587"/>
<text text-anchor="middle" x="169.99" y="-257.269" font-family="Times Roman,serif" font-size="8.00">gen</text>
</g>
<!-- nann0 -->
<g id="node8" class="node"><title>nann0</title>
<polygon fill="none" stroke="gray" points="73,-180 5,-180 5,-144 79,-144 79,-174 73,-180"/>
<polyline fill="none" stroke="gray" points="73,-180 73,-174 "/>
<polyline fill="none" stroke="gray" points="79,-174 73,-174 "/>
<text text-anchor="start" x="15" y="-159.667" font-family="Times Roman,serif" font-size="10.00">Status:</text>
<text text-anchor="start" x="44" y="-159.667" font-family="Times Roman,serif" font-size="10.00">Secret</text>
</g>
<!-- nann0&#45;&gt;nX_summary -->
<g id="edge2" class="edge"><title>nann0&#45;&gt;nX_summary</title>
<path fill="none" stroke="gray" stroke-dasharray="5,2" d="M71.0194,-180.169C89.5171,-191.75 113.276,-206.625 131.129,-217.803"/>
</g>
<!-- nY_summary&#45;&gt;nconsolidate_Y -->
<g id="edge14" class="edge"><title>nY_summary&#45;&gt;nconsolidate_Y</title>
<path fill="none" stroke="black" d="M313,-252.169C313,-259.869 313,-269.026 313,-277.583"/>
<polygon fill="black" stroke="black" points="309.5,-277.587 313,-287.587 316.5,-277.587 309.5,-277.587"/>
<text text-anchor="middle" x="325.99" y="-257.269" font-family="Times Roman,serif" font-size="8.00">gen</text>
</g>
<!-- nann1 -->
<g id="node11" class="node"><title>nann1</title>
<polygon fill="none" stroke="gray" points="435,-180 367,-180 367,-144 441,-144 441,-174 435,-180"/>
<polyline fill="none" stroke="gray" points="435,-180 435,-174 "/>
<polyline fill="none" stroke="gray" points="441,-174 435,-174 "/>
<text text-anchor="start" x="377" y="-159.667" font-family="Times Roman,serif" font-size="10.00">Status:</text>
<text text-anchor="start" x="406" y="-159.667" font-family="Times Roman,serif" font-size="10.00">Secret</text>
</g>
<!-- nann1&#45;&gt;nY_summary -->
<g id="edge4" class="edge"><title>nann1&#45;&gt;nY_summary</title>
<path fill="none" stroke="gray" stroke-dasharray="5,2" d="M381.037,-180.169C366.715,-191.5 348.409,-205.984 334.393,-217.074"/>
</g>
<!-- nreport_1&#45;&gt;nanalytics1 -->
<g id="edge26" class="edge"><title>nreport_1&#45;&gt;nanalytics1</title>
<path fill="none" stroke="black" d="M124.028,-108.169C125.312,-115.869 126.838,-125.026 128.264,-133.583"/>
<polygon fill="black" stroke="black" points="124.835,-134.298 129.931,-143.587 131.739,-133.147 124.835,-134.298"/>
<text text-anchor="middle" x="138.075" y="-111.031" font-family="Times Roman,serif" font-size="8.00">gen</text>
</g>
<!-- nann2 -->
<g id="node14" class="node"><title>nann2</title>
<polygon fill="none" stroke="gray" points="90,-36 4.26326e-14,-36 0,-1.77636e-14 96,-3.55271e-15 96,-30 90,-36"/>
<polyline fill="none" stroke="gray" points="90,-36 90,-30 "/>
<polyline fill="none" stroke="gray" points="96,-30 90,-30 "/>
<text text-anchor="start" x="10" y="-15.6667" font-family="Times Roman,serif" font-size="10.00">Status:</text>
<text text-anchor="start" x="39" y="-15.6667" font-family="Times Roman,serif" font-size="10.00">confidential</text>
</g>
<!-- nann2&#45;&gt;nreport_1 -->
<g id="edge6" class="edge"><title>nann2&#45;&gt;nreport_1</title>
<path fill="none" stroke="gray" stroke-dasharray="5,2" d="M66.421,-36.1686C77.9096,-47.4999 92.5952,-61.9843 103.839,-73.0737"/>
</g>
<!-- nreport_2&#45;&gt;nanalytics2 -->
<g id="edge28" class="edge"><title>nreport_2&#45;&gt;nanalytics2</title>
<path fill="none" stroke="black" d="M321.972,-108.169C320.688,-115.869 319.162,-125.026 317.736,-133.583"/>
<polygon fill="black" stroke="black" points="314.261,-133.147 316.069,-143.587 321.165,-134.298 314.261,-133.147"/>
<text text-anchor="middle" x="333.553" y="-115.302" font-family="Times Roman,serif" font-size="8.00">gen</text>
</g>
<!-- nann3 -->
<g id="node17" class="node"><title>nann3</title>
<polygon fill="none" stroke="gray" points="428,-36 338,-36 338,-1.77636e-14 434,-3.55271e-15 434,-30 428,-36"/>
<polyline fill="none" stroke="gray" points="428,-36 428,-30 "/>
<polyline fill="none" stroke="gray" points="434,-30 428,-30 "/>
<text text-anchor="start" x="348" y="-15.6667" font-family="Times Roman,serif" font-size="10.00">Status:</text>
<text text-anchor="start" x="377" y="-15.6667" font-family="Times Roman,serif" font-size="10.00">confidential</text>
</g>
<!-- nann3&#45;&gt;nreport_2 -->
<g id="edge8" class="edge"><title>nann3&#45;&gt;nreport_2</title>
<path fill="none" stroke="gray" stroke-dasharray="5,2" d="M370.607,-36.1686C361.007,-47.4999 348.736,-61.9843 339.34,-73.0737"/>
</g>
<!-- nreport_3&#45;&gt;nanalytics3 -->
<g id="edge30" class="edge"><title>nreport_3&#45;&gt;nanalytics3</title>
<path fill="none" stroke="black" d="M223,-108.169C223,-115.869 223,-125.026 223,-133.583"/>
<polygon fill="black" stroke="black" points="219.5,-133.587 223,-143.587 226.5,-133.587 219.5,-133.587"/>
<text text-anchor="middle" x="235.99" y="-113.269" font-family="Times Roman,serif" font-size="8.00">gen</text>
</g>
<!-- nann4 -->
<g id="node20" class="node"><title>nann4</title>
<polygon fill="none" stroke="gray" points="204,-36 114,-36 114,-1.77636e-14 210,-3.55271e-15 210,-30 204,-36"/>
<polyline fill="none" stroke="gray" points="204,-36 204,-30 "/>
<polyline fill="none" stroke="gray" points="210,-30 204,-30 "/>
<text text-anchor="start" x="124" y="-15.6667" font-family="Times Roman,serif" font-size="10.00">Status:</text>
<text text-anchor="start" x="153" y="-15.6667" font-family="Times Roman,serif" font-size="10.00">confidential</text>
</g>
<!-- nann4&#45;&gt;nreport_3 -->
<g id="edge10" class="edge"><title>nann4&#45;&gt;nreport_3</title>
<path fill="none" stroke="gray" stroke-dasharray="5,2" d="M177.393,-36.1686C186.993,-47.4999 199.264,-61.9843 208.66,-73.0737"/>
</g>
</g>
</svg>
