<?xml version="1.0" encoding="UTF-8" standalone="no"?>
<!DOCTYPE svg PUBLIC "-//W3C//DTD SVG 1.1//EN"
 "http://www.w3.org/Graphics/SVG/1.1/DTD/svg11.dtd">
<!-- Generated by graphviz version 2.22.2 (20090313.1817)
 -->
<!-- Title: PROV Pages: 1 -->
<svg width="442pt" height="332pt"
 viewBox="0.00 0.00 442.00 332.00" xmlns="http://www.w3.org/2000/svg" xmlns:xlink="http://www.w3.org/1999/xlink">
<g id="graph1" class="graph" transform="scale(1 1) rotate(0) translate(4 328)">
<title>PROV</title>
<polygon fill="white" stroke="white" points="-4,5 -4,-328 439,-328 439,5 -4,5"/>
<!-- nconsolidate_X -->
<g id="node1" class="node"><title>nconsolidate_X</title>
<polygon fill="#9fb1fc" stroke="#0000ff" points="191.766,-324 98.2338,-324 98.2338,-288 191.766,-288 191.766,-324"/>
<text text-anchor="middle" x="145" y="-301.8" font-family="Times Roman,serif" font-size="14.00">consolidate&#45;X</text>
</g>
<!-- nconsolidate_Y -->
<g id="node2" class="node"><title>nconsolidate_Y</title>
<polygon fill="#9fb1fc" stroke="#0000ff" points="331.766,-324 238.234,-324 238.234,-288 331.766,-288 331.766,-324"/>
<text text-anchor="middle" x="285" y="-301.8" font-family="Times Roman,serif" font-size="14.00">consolidate&#45;Y</text>
</g>
<!-- nreport_editing -->
<g id="node3" class="node"><title>nreport_editing</title>
<polygon fill="#9fb1fc" stroke="#0000ff" points="205.987,-36 114.013,-36 114.013,-1.77636e-14 205.987,-3.55271e-15 205.987,-36"/>
<text text-anchor="middle" x="160" y="-13.8" font-family="Times Roman,serif" font-size="14.00">report&#45;editing</text>
</g>
<!-- nreport_1 -->
<g id="node11" class="node"><title>nreport_1</title>
<ellipse fill="#fffc87" stroke="#808080" cx="109" cy="-90" rx="42.1367" ry="18"/>
<text text-anchor="middle" x="109" y="-85.8" font-family="Times Roman,serif" font-size="14.00">report&#45;1</text>
</g>
<!-- nreport_editing&#45;&gt;nreport_1 -->
<g id="edge26" class="edge"><title>nreport_editing&#45;&gt;nreport_1</title>
<path fill="none" stroke="black" d="M147.131,-36.1686C141.076,-44.7165 133.75,-55.0588 127.144,-64.3844"/>
<polygon fill="black" stroke="black" points="124.262,-62.3989 121.338,-72.5823 129.974,-66.4451 124.262,-62.3989"/>
<text text-anchor="middle" x="153.396" y="-47.3975" font-family="Times Roman,serif" font-size="8.00">use</text>
</g>
<!-- nreport_2 -->
<g id="node14" class="node"><title>nreport_2</title>
<ellipse fill="#fffc87" stroke="#808080" cx="211" cy="-90" rx="42.1367" ry="18"/>
<text text-anchor="middle" x="211" y="-85.8" font-family="Times Roman,serif" font-size="14.00">report&#45;2</text>
</g>
<!-- nreport_editing&#45;&gt;nreport_2 -->
<g id="edge28" class="edge"><title>nreport_editing&#45;&gt;nreport_2</title>
<path fill="none" stroke="black" d="M172.869,-36.1686C178.924,-44.7165 186.25,-55.0588 192.856,-64.3844"/>
<polygon fill="black" stroke="black" points="190.026,-66.4451 198.662,-72.5823 195.738,-62.3989 190.026,-66.4451"/>
<text text-anchor="middle" x="187.805" y="-32.3802" font-family="Times Roman,serif" font-size="8.00">use</text>
</g>
<!-- nreport_3 -->
<g id="node17" class="node"><title>nreport_3</title>
<ellipse fill="#fffc87" stroke="#808080" cx="313" cy="-90" rx="42.1367" ry="18"/>
<text text-anchor="middle" x="313" y="-85.8" font-family="Times Roman,serif" font-size="14.00">report&#45;3</text>
</g>
<!-- nreport_editing&#45;&gt;nreport_3 -->
<g id="edge30" class="edge"><title>nreport_editing&#45;&gt;nreport_3</title>
<path fill="none" stroke="black" d="M198.608,-36.1686C222.106,-47.2262 251.984,-61.2864 275.312,-72.2642"/>
<polygon fill="black" stroke="black" points="274.008,-75.5191 284.547,-76.6103 276.989,-69.1854 274.008,-75.5191"/>
<text text-anchor="middle" x="210.926" y="-25.2082" font-family="Times Roman,serif" font-size="8.00">use</text>
</g>
<!-- nabs -->
<g id="node4" class="node"><title>nabs</title>
<polygon fill="#9fb1fc" stroke="#0000ff" points="238,-180 184,-180 184,-144 238,-144 238,-180"/>
<text text-anchor="middle" x="211" y="-157.8" font-family="Times Roman,serif" font-size="14.00">abs</text>
</g>
<!-- nX_summary -->
<g id="node5" class="node"><title>nX_summary</title>
<ellipse fill="#fffc87" stroke="#808080" cx="145" cy="-234" rx="57.161" ry="18"/>
<text text-anchor="middle" x="145" y="-229.8" font-family="Times Roman,serif" font-size="14.00">X&#45;summary</text>
</g>
<!-- nabs&#45;&gt;nX_summary -->
<g id="edge16" class="edge"><title>nabs&#45;&gt;nX_summary</title>
<path fill="none" stroke="black" d="M194.345,-180.169C186.35,-188.891 176.642,-199.482 167.959,-208.954"/>
<polygon fill="black" stroke="black" points="165.143,-206.846 160.966,-216.582 170.304,-211.576 165.143,-206.846"/>
<text text-anchor="middle" x="198.853" y="-192.075" font-family="Times Roman,serif" font-size="8.00">use</text>
</g>
<!-- nY_summary -->
<g id="node8" class="node"><title>nY_summary</title>
<ellipse fill="#fffc87" stroke="#808080" cx="285" cy="-234" rx="57.161" ry="18"/>
<text text-anchor="middle" x="285" y="-229.8" font-family="Times Roman,serif" font-size="14.00">Y&#45;summary</text>
</g>
<!-- nabs&#45;&gt;nY_summary -->
<g id="edge18" class="edge"><title>nabs&#45;&gt;nY_summary</title>
<path fill="none" stroke="black" d="M229.673,-180.169C238.885,-189.132 250.125,-200.068 260.062,-209.736"/>
<polygon fill="black" stroke="black" points="257.744,-212.364 267.352,-216.829 262.625,-207.346 257.744,-212.364"/>
<text text-anchor="middle" x="244.108" y="-173.688" font-family="Times Roman,serif" font-size="8.00">use</text>
</g>
<!-- nX_summary&#45;&gt;nconsolidate_X -->
<g id="edge12" class="edge"><title>nX_summary&#45;&gt;nconsolidate_X</title>
<path fill="none" stroke="black" d="M145,-252.169C145,-259.869 145,-269.026 145,-277.583"/>
<polygon fill="black" stroke="black" points="141.5,-277.587 145,-287.587 148.5,-277.587 141.5,-277.587"/>
<text text-anchor="middle" x="157.99" y="-257.269" font-family="Times Roman,serif" font-size="8.00">gen</text>
</g>
<!-- nann0 -->
<g id="node6" class="node"><title>nann0</title>
<polygon fill="none" stroke="gray" points="160,-180 92,-180 92,-144 166,-144 166,-174 160,-180"/>
<polyline fill="none" stroke="gray" points="160,-180 160,-174 "/>
<polyline fill="none" stroke="gray" points="166,-174 160,-174 "/>
<text text-anchor="start" x="102" y="-159.667" font-family="Times Roman,serif" font-size="10.00">Status:</text>
<text text-anchor="start" x="131" y="-159.667" font-family="Times Roman,serif" font-size="10.00">Secret</text>
</g>
<!-- nann0&#45;&gt;nX_summary -->
<g id="edge2" class="edge"><title>nann0&#45;&gt;nX_summary</title>
<path fill="none" stroke="gray" stroke-dasharray="5,2" d="M133.037,-180.169C135.444,-191 138.492,-204.712 140.908,-215.587"/>
</g>
<!-- nY_summary&#45;&gt;nconsolidate_Y -->
<g id="edge14" class="edge"><title>nY_summary&#45;&gt;nconsolidate_Y</title>
<path fill="none" stroke="black" d="M285,-252.169C285,-259.869 285,-269.026 285,-277.583"/>
<polygon fill="black" stroke="black" points="281.5,-277.587 285,-287.587 288.5,-277.587 281.5,-277.587"/>
<text text-anchor="middle" x="297.99" y="-257.269" font-family="Times Roman,serif" font-size="8.00">gen</text>
</g>
<!-- nann1 -->
<g id="node9" class="node"><title>nann1</title>
<polygon fill="none" stroke="gray" points="324,-180 256,-180 256,-144 330,-144 330,-174 324,-180"/>
<polyline fill="none" stroke="gray" points="324,-180 324,-174 "/>
<polyline fill="none" stroke="gray" points="330,-174 324,-174 "/>
<text text-anchor="start" x="266" y="-159.667" font-family="Times Roman,serif" font-size="10.00">Status:</text>
<text text-anchor="start" x="295" y="-159.667" font-family="Times Roman,serif" font-size="10.00">Secret</text>
</g>
<!-- nann1&#45;&gt;nY_summary -->
<g id="edge4" class="edge"><title>nann1&#45;&gt;nY_summary</title>
<path fill="none" stroke="gray" stroke-dasharray="5,2" d="M290.981,-180.169C289.778,-191 288.254,-204.712 287.046,-215.587"/>
</g>
<!-- nreport_1&#45;&gt;nabs -->
<g id="edge20" class="edge"><title>nreport_1&#45;&gt;nabs</title>
<path fill="none" stroke="black" d="M130.882,-105.446C144.316,-114.929 161.804,-127.273 177.012,-138.009"/>
<polygon fill="black" stroke="black" points="174.999,-140.872 185.187,-143.779 179.036,-135.153 174.999,-140.872"/>
<text text-anchor="middle" x="144.5" y="-96.7582" font-family="Times Roman,serif" font-size="8.00">gen</text>
</g>
<!-- nann2 -->
<g id="node12" class="node"><title>nann2</title>
<polygon fill="none" stroke="gray" points="90,-36 4.26326e-14,-36 0,-1.77636e-14 96,-3.55271e-15 96,-30 90,-36"/>
<polyline fill="none" stroke="gray" points="90,-36 90,-30 "/>
<polyline fill="none" stroke="gray" points="96,-30 90,-30 "/>
<text text-anchor="start" x="10" y="-15.6667" font-family="Times Roman,serif" font-size="10.00">Status:</text>
<text text-anchor="start" x="39" y="-15.6667" font-family="Times Roman,serif" font-size="10.00">confidential</text>
</g>
<!-- nann2&#45;&gt;nreport_1 -->
<g id="edge6" class="edge"><title>nann2&#45;&gt;nreport_1</title>
<path fill="none" stroke="gray" stroke-dasharray="5,2" d="M63.3929,-36.1686C72.993,-47.4999 85.2645,-61.9843 94.6597,-73.0737"/>
</g>
<!-- nreport_2&#45;&gt;nabs -->
<g id="edge22" class="edge"><title>nreport_2&#45;&gt;nabs</title>
<path fill="none" stroke="black" d="M211,-108.169C211,-115.869 211,-125.026 211,-133.583"/>
<polygon fill="black" stroke="black" points="207.5,-133.587 211,-143.587 214.5,-133.587 207.5,-133.587"/>
<text text-anchor="middle" x="223.99" y="-113.269" font-family="Times Roman,serif" font-size="8.00">gen</text>
</g>
<!-- nann3 -->
<g id="node15" class="node"><title>nann3</title>
<polygon fill="none" stroke="gray" points="314,-36 224,-36 224,-1.77636e-14 320,-3.55271e-15 320,-30 314,-36"/>
<polyline fill="none" stroke="gray" points="314,-36 314,-30 "/>
<polyline fill="none" stroke="gray" points="320,-30 314,-30 "/>
<text text-anchor="start" x="234" y="-15.6667" font-family="Times Roman,serif" font-size="10.00">Status:</text>
<text text-anchor="start" x="263" y="-15.6667" font-family="Times Roman,serif" font-size="10.00">confidential</text>
</g>
<!-- nann3&#45;&gt;nreport_2 -->
<g id="edge8" class="edge"><title>nann3&#45;&gt;nreport_2</title>
<path fill="none" stroke="gray" stroke-dasharray="5,2" d="M256.607,-36.1686C247.007,-47.4999 234.736,-61.9843 225.34,-73.0737"/>
</g>
<!-- nreport_3&#45;&gt;nabs -->
<g id="edge24" class="edge"><title>nreport_3&#45;&gt;nabs</title>
<path fill="none" stroke="black" d="M291.118,-105.446C277.684,-114.929 260.196,-127.273 244.988,-138.009"/>
<polygon fill="black" stroke="black" points="242.964,-135.153 236.813,-143.779 247.001,-140.872 242.964,-135.153"/>
<text text-anchor="middle" x="292.483" y="-117.984" font-family="Times Roman,serif" font-size="8.00">gen</text>
</g>
<!-- nann4 -->
<g id="node18" class="node"><title>nann4</title>
<polygon fill="none" stroke="gray" points="428,-36 338,-36 338,-1.77636e-14 434,-3.55271e-15 434,-30 428,-36"/>
<polyline fill="none" stroke="gray" points="428,-36 428,-30 "/>
<polyline fill="none" stroke="gray" points="434,-30 428,-30 "/>
<text text-anchor="start" x="348" y="-15.6667" font-family="Times Roman,serif" font-size="10.00">Status:</text>
<text text-anchor="start" x="377" y="-15.6667" font-family="Times Roman,serif" font-size="10.00">confidential</text>
</g>
<!-- nann4&#45;&gt;nreport_3 -->
<g id="edge10" class="edge"><title>nann4&#45;&gt;nreport_3</title>
<path fill="none" stroke="gray" stroke-dasharray="5,2" d="M367.579,-36.1686C356.09,-47.4999 341.405,-61.9843 330.161,-73.0737"/>
</g>
</g>
</svg>
